<?xml version="1.0" standalone="no"?>
<!DOCTYPE svg PUBLIC "-//W3C//DTD SVG 20010904//EN"
 "http://www.w3.org/TR/2001/REC-SVG-20010904/DTD/svg10.dtd">
<svg version="1.0" xmlns="http://www.w3.org/2000/svg"
 width="512.000000pt" height="512.000000pt" viewBox="0 0 512.000000 512.000000"
 preserveAspectRatio="xMidYMid meet">
<metadata>
Created by potrace 1.14, written by Peter Selinger 2001-2017
</metadata>
<g transform="translate(0.000000,512.000000) scale(0.100000,-0.100000)"
fill="#000000" stroke="none">
<path d="M2590 5045 c14 -17 14 -18 -6 -7 -17 9 -24 9 -34 -3 -7 -8 -16 -12
-22 -9 -5 3 -16 0 -25 -8 -14 -11 -16 -11 -9 1 6 8 0 7 -18 -4 -14 -10 -26
-14 -26 -9 0 4 -7 -1 -16 -12 -8 -10 -13 -14 -10 -8 3 6 -1 11 -9 11 -8 0 -11
-5 -8 -10 4 -7 -1 -8 -12 -3 -15 5 -16 4 -5 -9 11 -14 10 -14 -14 -6 -18 8
-26 7 -26 0 0 -7 -11 -9 -25 -7 -20 4 -23 3 -14 -8 9 -11 5 -13 -20 -10 -25 3
-29 1 -20 -10 8 -10 6 -12 -12 -9 -12 3 -28 0 -36 -6 -7 -7 -13 -8 -13 -3 0 4
-7 -1 -15 -12 -13 -16 -16 -17 -25 -4 -8 12 -10 12 -10 1 0 -8 -7 -11 -20 -8
-12 3 -18 1 -14 -5 10 -16 -18 -28 -38 -17 -13 7 -16 6 -12 -5 4 -9 -2 -13
-18 -12 -15 1 -22 -4 -20 -13 2 -11 0 -12 -11 -3 -11 9 -16 7 -26 -14 -6 -15
-7 -23 -1 -19 5 3 10 -3 10 -14 0 -12 5 -21 10 -21 6 0 10 -13 10 -28 0 -15 6
-34 13 -41 10 -11 9 -12 -1 -6 -11 6 -11 3 0 -14 7 -12 16 -21 21 -21 4 0 5
-5 2 -10 -4 -6 1 -22 9 -35 9 -14 13 -25 8 -25 -5 0 -9 -7 -9 -15 0 -9 6 -14
14 -11 8 3 11 1 8 -5 -4 -5 -1 -17 7 -26 9 -12 9 -15 0 -9 -20 12 -8 -32 14
-49 19 -15 19 -15 -1 -9 -20 6 -20 5 -1 -10 11 -9 16 -16 12 -16 -5 0 -3 -7 5
-16 10 -13 10 -17 -2 -25 -12 -7 -11 -9 3 -9 11 0 15 -6 11 -20 -3 -12 0 -20
6 -20 7 0 9 -4 6 -10 -3 -5 -1 -10 6 -10 8 0 7 -5 -2 -17 -8 -9 -9 -14 -3 -10
15 9 25 -15 14 -33 -4 -7 -17 -10 -28 -8 -16 4 -19 2 -15 -10 4 -10 2 -13 -6
-8 -6 4 -18 3 -25 -3 -8 -7 -18 -11 -22 -10 -22 4 -35 -2 -28 -12 4 -7 -1 -7
-16 1 -18 10 -21 9 -15 -1 6 -9 3 -11 -9 -6 -9 4 -15 3 -12 -1 3 -4 -4 -13
-14 -20 -14 -9 -21 -9 -26 0 -5 7 -3 8 6 3 9 -5 11 -4 6 4 -4 6 -12 9 -17 5
-5 -3 -7 -10 -4 -15 4 -5 -8 -12 -25 -15 -17 -4 -37 -16 -45 -28 -8 -11 -15
-15 -15 -9 0 7 -7 10 -15 7 -8 -4 -15 -10 -15 -16 0 -5 5 -6 12 -2 7 4 8 3 4
-4 -4 -6 -13 -9 -21 -5 -8 3 -15 0 -15 -5 0 -6 -9 -9 -21 -7 -18 4 -19 2 -7
-12 8 -10 8 -14 1 -10 -6 4 -24 -4 -39 -18 -15 -14 -34 -23 -41 -21 -7 3 -13
-1 -13 -9 0 -8 -6 -14 -12 -12 -7 1 -12 -4 -10 -11 1 -8 -2 -11 -7 -8 -5 4
-23 -7 -39 -23 -16 -17 -32 -27 -36 -24 -6 6 -10 -12 -7 -30 1 -4 -9 -2 -21 4
-22 12 -22 11 -8 -6 8 -10 10 -16 3 -12 -6 4 -21 -5 -35 -21 -12 -15 -27 -29
-33 -30 -5 -1 -10 -8 -10 -14 -1 -7 -6 -12 -12 -11 -7 2 -10 -6 -8 -16 2 -12
-2 -18 -13 -17 -9 0 -16 -4 -15 -11 2 -7 -7 -17 -18 -23 -12 -7 -18 -18 -15
-26 3 -7 2 -13 -2 -13 -21 3 -32 -2 -26 -13 5 -8 1 -9 -12 -4 -14 5 -16 4 -8
-4 9 -9 2 -22 -28 -52 -24 -25 -37 -46 -34 -55 5 -11 2 -13 -10 -9 -15 6 -15
4 -3 -11 8 -9 9 -14 2 -10 -7 4 -14 -1 -18 -12 -3 -11 -12 -22 -20 -25 -8 -3
-15 -11 -15 -18 0 -9 3 -9 11 2 9 13 10 13 6 0 -2 -8 -11 -15 -20 -15 -8 0
-19 -4 -24 -9 -4 -5 -3 -6 5 -2 8 5 11 1 9 -12 -4 -24 -32 -54 -42 -44 -4 4
-2 -3 4 -16 7 -12 8 -22 4 -21 -21 3 -24 -2 -12 -18 8 -9 9 -14 3 -10 -6 3
-20 -1 -30 -9 -10 -9 -14 -13 -7 -10 7 4 11 -1 10 -13 -1 -12 -6 -17 -15 -13
-10 3 -13 0 -10 -9 6 -17 -10 -51 -21 -45 -4 3 -8 -1 -8 -9 0 -8 4 -12 9 -9 5
4 4 -3 -3 -14 -7 -12 -18 -18 -24 -14 -5 3 -3 -3 5 -13 8 -10 10 -16 4 -12 -7
4 -15 0 -18 -9 -4 -10 -2 -13 6 -8 7 5 8 3 4 -5 -5 -7 -14 -10 -22 -7 -12 4
-12 2 -4 -14 8 -15 8 -20 -1 -20 -6 0 -9 -8 -6 -19 3 -13 1 -18 -8 -14 -9 3
-13 -3 -11 -21 2 -18 -2 -26 -13 -26 -14 0 -14 -2 -1 -10 14 -9 7 -15 -15 -10
-5 1 -5 -4 2 -11 10 -10 9 -15 -5 -26 -10 -9 -11 -12 -2 -7 12 6 13 5 4 -7 -6
-8 -10 -22 -9 -31 2 -10 0 -17 -3 -17 -20 3 -25 -2 -12 -11 10 -6 11 -10 3
-10 -7 0 -13 -9 -13 -19 0 -11 -5 -23 -10 -26 -8 -5 -7 -12 2 -23 11 -13 11
-14 -1 -7 -11 6 -13 3 -8 -14 4 -17 2 -20 -7 -12 -8 7 -12 5 -12 -9 0 -10 5
-16 10 -13 5 4 6 1 0 -8 -4 -8 -9 -20 -11 -28 -1 -8 -8 -18 -15 -22 -11 -7
-10 -9 1 -9 11 0 11 -3 1 -15 -7 -8 -10 -24 -7 -35 3 -11 1 -18 -3 -15 -5 3
-11 1 -15 -5 -3 -5 -1 -10 6 -10 9 0 9 -3 0 -14 -9 -11 -9 -15 1 -19 8 -4 7
-6 -4 -6 -10 -1 -18 -6 -18 -12 0 -5 5 -7 11 -3 7 4 10 1 7 -7 -3 -8 -11 -13
-18 -11 -10 2 -11 0 -2 -11 14 -17 6 -27 -16 -21 -15 5 -15 4 0 -6 18 -11 13
-45 -5 -33 -6 4 -8 0 -4 -9 6 -17 -8 -19 -32 -4 -10 6 -12 5 -7 -2 4 -8 2 -10
-7 -6 -8 3 -20 15 -26 27 -7 13 -9 14 -7 4 5 -14 2 -16 -13 -8 -10 6 -21 7
-25 4 -3 -3 -6 -1 -6 6 0 7 -8 11 -18 9 -11 -2 -26 3 -35 10 -12 10 -17 10
-23 1 -4 -7 -3 -9 4 -5 6 3 13 2 17 -3 6 -10 -27 -7 -45 4 -6 3 -10 1 -10 -5
0 -8 -6 -7 -21 1 -17 9 -20 8 -14 -2 6 -9 2 -11 -14 -6 -17 4 -21 2 -17 -9 4
-12 2 -12 -14 -4 -19 10 -24 5 -22 -20 0 -4 -10 -7 -24 -8 -46 -3 -53 -5 -48
-14 3 -5 10 -5 16 -2 7 4 8 2 4 -5 -4 -6 -12 -9 -17 -6 -5 4 -9 1 -9 -5 0 -6
-5 -8 -10 -5 -6 3 -13 -1 -16 -9 -3 -9 -10 -13 -15 -10 -5 3 -6 -1 -3 -9 3 -8
0 -18 -7 -23 -8 -5 -10 -3 -4 6 5 9 4 11 -4 6 -9 -6 -9 -11 0 -22 10 -12 9
-13 -5 -8 -11 4 -16 2 -14 -7 2 -8 -3 -13 -11 -11 -12 3 -12 1 0 -14 12 -15
12 -16 0 -9 -11 6 -13 2 -9 -19 3 -14 1 -29 -5 -33 -5 -3 -7 -1 -3 5 3 6 1 14
-6 18 -7 4 -10 4 -6 -1 4 -4 3 -17 -3 -28 -8 -14 -8 -18 0 -13 14 9 14 0 1
-25 -8 -14 -7 -19 2 -19 8 -1 5 -7 -6 -15 -17 -13 -17 -15 -3 -15 13 0 15 -5
9 -22 -10 -27 -5 -58 9 -58 5 0 9 -5 9 -11 0 -5 -5 -7 -11 -3 -7 4 -6 -3 2
-17 7 -13 13 -32 14 -41 1 -15 -1 -15 -13 -5 -13 10 -14 9 -4 -9 6 -12 8 -24
5 -28 -3 -3 -1 -6 6 -6 7 0 9 -5 6 -10 -4 -6 -10 -8 -15 -5 -5 3 -7 -4 -5 -16
3 -13 0 -28 -6 -36 -9 -10 -8 -13 2 -13 9 0 10 -3 4 -8 -10 -7 -12 -14 -18
-50 -1 -9 -6 -22 -10 -29 -4 -6 -3 -14 2 -18 6 -3 1 -20 -10 -40 -12 -21 -16
-35 -10 -35 8 0 7 -9 -2 -27 -8 -16 -12 -34 -9 -42 3 -10 0 -11 -9 -5 -12 7
-12 5 0 -9 9 -12 10 -17 2 -17 -7 0 -9 -5 -4 -12 12 -21 12 -37 -1 -32 -10 4
-12 -8 -10 -42 2 -26 7 -50 11 -53 5 -3 9 -12 11 -20 3 -12 1 -12 -15 0 -17
13 -17 13 -1 -6 16 -20 18 -24 18 -46 0 -5 4 -8 9 -5 4 3 7 -6 5 -20 -2 -20 1
-24 13 -20 13 5 14 4 4 -8 -9 -11 -9 -16 0 -22 8 -5 10 -3 4 7 -4 8 3 3 16
-11 15 -15 21 -28 14 -32 -5 -4 0 -8 12 -8 12 0 25 -4 28 -10 3 -6 -2 -8 -12
-5 -10 3 -6 -1 10 -8 15 -7 25 -16 22 -19 -4 -3 7 -5 23 -4 23 2 28 -2 24 -13
-4 -10 -1 -13 11 -8 11 4 17 1 17 -8 0 -8 8 -12 19 -10 11 2 22 -3 25 -11 4
-12 10 -12 26 -4 16 8 18 8 14 -4 -4 -12 1 -13 30 -6 23 5 38 4 43 -3 4 -6 1
-7 -7 -2 -8 5 -11 4 -6 -3 4 -6 13 -9 21 -6 8 4 13 9 10 14 -2 4 13 4 35 0 33
-6 38 -5 29 6 -8 10 -5 12 15 8 14 -2 26 0 26 5 0 5 8 8 17 6 10 -1 23 7 30
19 7 11 12 16 13 9 0 -7 7 -10 15 -7 8 4 12 11 8 17 -4 6 0 8 10 4 9 -3 19 -1
23 5 4 7 3 8 -4 4 -7 -4 -10 -2 -7 6 3 8 14 14 24 14 12 0 17 -5 13 -15 -3 -9
-1 -12 6 -7 8 5 12 0 12 -13 0 -12 4 -21 10 -21 5 0 9 -3 9 -7 -3 -21 2 -33
16 -33 8 0 15 -5 15 -11 0 -5 -4 -7 -10 -4 -6 3 -7 -1 -4 -9 3 -9 10 -16 15
-16 5 0 9 -6 9 -14 0 -8 7 -17 16 -20 9 -3 14 -13 11 -20 -3 -8 2 -20 11 -28
16 -12 16 -11 2 7 -14 19 -14 19 2 6 10 -7 16 -17 13 -21 -3 -5 2 -15 11 -24
8 -9 13 -20 9 -26 -4 -6 1 -7 11 -3 12 4 15 3 10 -5 -4 -7 -1 -15 8 -18 8 -3
12 -12 9 -20 -3 -8 1 -14 11 -14 9 0 16 -7 16 -16 0 -9 5 -12 12 -8 8 5 9 2 5
-9 -3 -9 -1 -19 5 -23 7 -5 8 -2 3 6 -5 9 -4 11 3 6 7 -4 12 -14 12 -22 0 -8
4 -12 10 -9 5 3 10 -1 10 -10 0 -9 4 -13 10 -10 5 3 10 1 10 -5 0 -6 13 -24
29 -39 16 -16 27 -32 24 -35 -4 -3 4 -6 16 -6 17 0 21 -4 17 -16 -3 -8 -2 -13
3 -10 5 3 12 -1 15 -10 3 -9 11 -12 18 -8 8 5 9 2 5 -10 -4 -9 -3 -15 2 -11 5
3 16 -1 24 -9 8 -8 17 -12 21 -9 3 4 6 -1 6 -11 0 -9 4 -15 9 -12 5 3 11 -1
15 -9 3 -8 26 -25 51 -37 25 -12 45 -28 45 -35 0 -7 7 -13 15 -13 8 0 15 -4
15 -10 0 -5 7 -10 15 -10 8 0 15 -4 15 -10 0 -5 6 -9 13 -7 6 1 11 -4 9 -11
-1 -8 2 -11 7 -8 5 4 17 -1 25 -10 12 -11 16 -12 16 -2 1 7 7 2 15 -12 8 -14
14 -19 15 -12 0 10 3 10 14 0 8 -7 11 -17 8 -23 -3 -5 2 -4 11 4 11 9 17 10
17 2 0 -6 7 -11 15 -11 8 0 15 -6 15 -12 0 -9 4 -8 10 2 7 11 10 11 10 2 0 -7
5 -10 10 -7 6 4 9 1 8 -6 -2 -6 3 -14 11 -17 9 -3 11 0 6 9 -5 8 5 2 21 -12
16 -15 37 -25 47 -24 9 2 17 -1 17 -6 0 -6 4 -8 9 -5 5 3 17 -2 28 -12 10 -9
12 -12 4 -7 -10 6 -8 0 4 -16 11 -15 23 -25 28 -22 6 4 11 -12 8 -30 -1 -7 15
-11 33 -8 5 1 3 -5 -4 -14 -7 -9 -9 -15 -4 -14 21 4 35 -2 29 -11 -3 -6 1 -10
10 -10 9 0 13 -4 10 -10 -3 -6 1 -7 9 -4 11 4 16 0 16 -11 0 -9 4 -14 9 -10 5
3 16 -1 24 -9 8 -8 17 -12 21 -9 3 4 6 -2 7 -13 0 -10 3 -14 6 -7 3 10 7 10
18 0 7 -7 10 -16 7 -22 -3 -5 2 -4 11 4 11 9 17 10 17 2 0 -6 7 -11 15 -11 8
0 15 -4 15 -10 0 -5 7 -7 15 -4 9 4 15 0 16 -7 0 -8 4 -5 9 6 8 18 9 18 9 2 1
-10 5 -16 10 -13 5 3 12 -1 15 -9 4 -12 10 -14 25 -5 14 7 22 7 27 -2 5 -7 3
-8 -7 -3 -8 5 -10 4 -6 0 12 -14 38 -15 30 -2 -4 8 -1 7 9 -1 9 -7 32 -12 53
-10 22 1 40 -3 44 -11 7 -11 10 -11 14 0 5 12 6 12 6 0 1 -11 4 -11 16 -1 12
10 15 10 15 0 0 -9 4 -9 13 -2 15 13 29 13 44 0 7 -5 17 -7 22 -4 5 4 13 1 17
-5 5 -9 11 -7 21 6 7 11 13 14 13 8 0 -6 7 -13 15 -17 8 -3 14 -1 12 3 -1 5 2
8 8 8 5 -1 9 -6 7 -12 -2 -5 6 -1 17 9 14 13 21 15 21 6 0 -9 4 -10 13 -2 7 6
18 7 26 2 18 -11 43 -1 34 14 -4 6 -1 6 9 -2 13 -10 17 -10 22 5 6 15 9 15 17
3 8 -11 12 -12 16 -2 2 6 9 12 14 12 6 0 7 -6 4 -12 -4 -7 1 -4 9 6 12 15 16
16 16 5 0 -12 2 -12 9 0 12 19 42 23 60 8 12 -10 14 -9 8 6 -4 11 -2 17 8 17
27 0 30 1 39 17 6 11 10 12 16 3 5 -9 14 -5 30 12 13 12 20 16 16 8 -5 -9 -2
-8 7 3 9 11 22 15 33 11 14 -4 15 -3 5 4 -9 7 -10 12 -2 16 6 4 11 4 11 1 0
-3 6 0 14 7 8 7 12 16 9 20 -2 4 4 5 13 1 13 -5 15 -3 9 7 -6 10 -4 12 9 7 14
-6 17 -3 12 9 -4 11 -2 15 8 11 11 -4 13 -1 9 10 -4 9 -2 14 3 11 5 -3 18 4
29 15 11 11 15 17 8 13 -6 -3 -15 -2 -18 4 -4 6 -3 10 2 9 18 -3 36 1 30 7 -3
4 1 13 9 21 8 8 12 18 9 22 -2 5 8 8 23 9 47 0 53 2 47 12 -6 9 -2 11 35 14 8
1 14 7 13 13 -1 6 6 9 19 5 14 -3 19 -1 14 6 -3 6 -1 14 5 18 8 4 9 3 5 -4
-13 -22 13 -12 30 11 10 14 14 16 11 5 -4 -12 -2 -15 8 -11 8 3 13 8 10 13 -7
11 42 33 56 25 8 -5 10 -4 5 3 -5 8 1 12 14 12 12 0 19 4 15 9 -3 5 -1 12 5
16 5 3 10 1 10 -5 0 -6 5 -8 10 -5 6 4 7 11 4 17 -5 7 0 9 14 6 12 -4 20 -3
18 1 -6 9 30 41 38 34 3 -3 16 6 29 21 13 14 28 22 32 18 5 -4 5 2 1 12 -5 14
-3 16 6 8 9 -7 17 -6 26 4 7 8 9 14 5 14 -4 0 0 5 10 11 9 5 23 7 30 3 8 -5 7
-2 -2 9 -12 15 -12 17 4 11 14 -6 16 -4 10 6 -6 10 -4 12 9 7 9 -4 14 -3 11 2
-3 5 4 12 15 16 11 3 19 12 17 18 -1 7 6 11 15 11 10 -1 17 1 16 5 -2 19 3 31
12 26 6 -3 11 -1 11 4 1 6 2 15 3 20 0 5 5 13 10 18 5 5 6 3 2 -4 -4 -7 -2
-13 3 -13 6 0 11 5 11 11 0 5 6 7 13 3 7 -5 6 0 -3 11 -9 11 -10 16 -2 11 7
-4 15 -1 18 8 3 9 12 16 20 16 8 0 13 6 11 13 -1 6 3 11 10 10 7 -2 10 4 7 12
-4 9 0 15 10 15 9 0 15 6 13 13 -1 6 3 11 9 10 6 -1 11 5 12 13 1 8 3 21 4 29
1 8 5 12 10 9 5 -3 6 -11 2 -17 -3 -7 2 -3 10 7 9 11 16 24 16 29 0 4 5 5 11
1 7 -4 7 1 -1 16 -8 15 -8 20 -1 16 6 -4 15 4 21 18 5 14 14 26 20 26 6 0 8 5
4 12 -5 8 -2 9 11 4 14 -5 16 -4 6 8 -9 11 -8 15 6 20 15 6 15 8 3 16 -12 8
-10 10 8 10 12 0 22 5 22 11 0 5 -4 7 -10 4 -6 -3 -7 1 -4 9 3 9 11 13 17 9 6
-4 8 2 4 16 -4 17 -2 21 9 17 9 -3 14 0 13 7 -1 6 3 23 9 37 6 14 11 21 12 15
1 -5 5 -1 10 10 7 15 9 16 9 4 1 -9 10 -19 22 -22 12 -3 18 -10 15 -15 -3 -6
1 -13 10 -16 9 -4 13 -2 8 5 -4 8 0 7 15 0 11 -7 21 -16 21 -21 0 -6 11 -10
25 -10 14 0 25 -4 25 -8 0 -5 6 -9 13 -10 6 -1 23 -3 37 -5 14 -2 33 1 44 6
13 6 16 6 12 -2 -4 -6 -2 -11 3 -11 6 0 11 4 11 9 0 5 12 8 27 5 15 -3 30 0
34 8 7 10 9 10 9 -1 0 -11 3 -11 17 0 11 9 14 10 9 2 -5 -9 -2 -11 8 -7 9 3
13 10 10 15 -3 5 2 10 10 10 29 3 34 4 42 11 4 5 1 8 -6 8 -7 0 -10 3 -7 6 4
4 13 1 22 -6 12 -10 15 -10 15 4 0 9 8 16 21 16 11 0 17 5 14 10 -3 6 1 10 9
10 9 0 16 5 16 10 0 6 12 15 26 20 14 6 22 15 19 20 -4 6 4 20 17 31 13 11 17
18 11 14 -7 -3 -13 -2 -13 3 0 6 7 13 16 16 13 5 14 9 3 22 -7 8 -8 14 -3 13
21 -4 24 2 13 23 -11 20 -10 21 2 11 12 -10 15 -8 15 8 0 10 -5 19 -11 19 -5
0 -4 4 4 9 18 12 23 39 9 48 -7 4 -8 1 -3 -7 6 -9 4 -11 -4 -5 -9 5 -10 10 -2
18 7 7 7 16 0 30 -8 14 -8 18 0 13 17 -11 13 10 -4 24 -12 10 -13 15 -3 28 10
12 10 16 1 19 -10 4 -10 10 -2 25 9 16 8 19 -1 13 -10 -6 -12 -1 -8 19 3 14 1
26 -4 26 -5 0 -7 4 -4 9 4 5 0 12 -6 14 -9 4 -9 6 1 6 11 1 10 5 -5 16 -13 10
-14 14 -5 15 9 0 10 4 4 13 -6 6 -9 20 -8 30 3 15 -7 22 -28 18 -5 -1 -5 3 -2
9 4 6 14 9 23 5 14 -5 13 -3 -1 13 -10 11 -15 26 -11 36 4 9 1 16 -6 16 -10 0
-10 3 -1 14 9 11 9 16 0 22 -8 4 -9 3 -5 -4 4 -7 2 -12 -4 -12 -9 0 -7 26 6
68 2 8 -1 10 -9 6 -6 -4 -3 3 8 16 11 13 15 20 9 17 -7 -4 -14 0 -18 8 -3 8
-2 14 2 14 19 -3 25 2 12 11 -12 8 -12 10 -1 10 11 0 11 3 0 17 -12 14 -12 16
0 8 11 -6 13 -4 8 8 -4 10 -2 17 5 17 6 0 5 6 -3 17 -10 11 -10 14 -1 9 14 -8
16 3 2 24 -5 9 -5 19 1 26 7 8 6 15 -2 20 -8 5 -9 3 -4 -6 5 -9 4 -11 -4 -6
-9 6 -9 11 -1 21 7 9 6 16 -6 25 -8 8 -13 22 -11 32 3 10 1 16 -4 12 -5 -3 -9
4 -9 15 0 12 -4 21 -10 21 -5 0 -10 7 -10 16 0 8 -4 12 -10 9 -5 -3 -10 1 -10
9 0 9 -7 16 -16 16 -8 0 -13 3 -11 8 5 7 -24 40 -30 35 -2 -2 -9 -3 -15 -3
-10 0 -10 2 0 9 10 6 9 10 -7 14 -14 3 -19 1 -14 -6 3 -7 -3 -4 -15 7 -12 11
-28 16 -38 12 -14 -5 -15 -4 -5 8 10 11 9 14 -1 12 -7 -1 -19 -6 -27 -10 -9
-6 -12 -5 -7 2 4 7 -5 10 -25 10 -17 -1 -35 5 -40 13 -7 11 -9 11 -9 -3 0 -15
-4 -16 -26 -8 -14 6 -23 6 -20 1 9 -14 -25 -23 -40 -10 -11 9 -14 8 -14 -4 0
-9 -5 -19 -12 -23 -7 -4 -8 -3 -4 4 4 7 1 12 -8 12 -9 0 -16 -5 -16 -11 0 -5
-4 -7 -10 -4 -5 3 -10 3 -10 -2 0 -4 -11 -8 -24 -8 -16 0 -22 4 -18 14 4 10 1
12 -7 6 -10 -6 -11 -3 -1 15 7 12 8 20 2 16 -5 -3 -13 1 -16 10 -4 10 -2 13 7
9 6 -4 4 0 -6 8 -12 10 -14 17 -8 22 6 3 11 11 11 17 0 6 -6 6 -15 -2 -14 -11
-14 -10 -5 14 5 15 6 25 1 22 -5 -3 -12 1 -15 10 -3 8 -2 12 4 9 6 -3 10 -2
10 4 0 5 -6 12 -12 14 -10 4 -10 6 0 6 10 1 10 5 -2 17 -9 8 -16 21 -16 27 0
7 4 6 10 -3 5 -8 10 -11 10 -6 0 6 -9 20 -21 32 -15 16 -17 24 -8 29 7 5 10 4
5 -3 -3 -6 -2 -13 3 -16 18 -11 5 24 -15 40 -15 13 -16 15 -2 10 12 -3 15 -1
11 10 -3 7 -10 14 -15 14 -6 0 -8 6 -5 14 3 7 0 19 -6 25 -6 6 -7 11 -2 11 4
0 0 9 -11 21 -21 24 -22 28 -2 40 10 7 9 9 -5 9 -10 0 -15 5 -12 10 3 6 0 10
-7 10 -8 0 -6 5 5 11 18 11 14 29 -6 29 -7 0 -6 -4 3 -11 10 -7 11 -9 2 -7 -8
2 -14 8 -14 13 0 6 -5 16 -11 24 -10 12 -9 13 3 6 13 -7 13 -6 2 7 -7 9 -11
22 -10 29 2 8 -2 13 -9 12 -8 -2 -10 4 -6 14 5 12 3 14 -8 8 -11 -6 -11 -5 -2
5 13 14 7 40 -9 40 -6 0 -4 -8 3 -17 13 -16 12 -17 -4 -4 -13 10 -15 17 -6 27
9 11 8 14 0 14 -7 0 -10 4 -6 9 3 5 1 12 -5 16 -6 4 -8 10 -5 15 3 5 0 12 -6
16 -8 5 -9 3 -4 -7 8 -12 6 -12 -8 0 -18 15 -23 26 -7 16 6 -3 10 3 10 14 0
12 -7 21 -15 21 -8 0 -12 6 -9 14 3 8 -4 24 -15 35 -12 12 -21 28 -21 36 0 8
-6 15 -12 15 -9 0 -8 4 2 10 13 8 13 10 -2 10 -12 0 -16 6 -13 20 3 13 0 18
-7 14 -7 -5 -9 -1 -5 9 4 11 1 17 -8 17 -8 0 -15 9 -15 19 0 11 -8 22 -19 26
-12 4 -17 13 -15 30 1 14 -1 23 -6 20 -4 -2 -16 5 -26 18 -16 19 -16 20 -1 8
15 -12 17 -12 11 3 -3 9 -12 16 -20 16 -8 0 -11 6 -7 17 4 9 2 14 -3 10 -5 -3
-16 8 -23 24 -7 16 -17 27 -22 23 -5 -3 -9 4 -9 16 0 12 -4 19 -9 16 -4 -3
-13 6 -20 20 -6 14 -16 22 -21 19 -6 -4 -9 -1 -8 7 2 7 -3 12 -11 10 -12 -3
-12 -1 0 14 9 12 9 15 2 10 -12 -7 -18 5 -14 28 1 5 -6 3 -15 -5 -10 -8 -15
-9 -11 -2 8 13 -36 66 -46 56 -4 -3 -7 3 -7 14 0 11 -8 27 -17 34 -11 10 -14
10 -9 2 4 -7 4 -13 1 -13 -10 0 -35 27 -35 38 0 5 -8 16 -17 23 -17 13 -17 12
-4 -6 8 -11 -3 -2 -24 20 -21 22 -34 33 -30 25 4 -9 1 -8 -8 3 -8 9 -20 17
-26 17 -7 0 -11 7 -9 16 2 10 -4 19 -12 21 -13 4 -13 3 0 -6 8 -6 11 -11 5
-11 -17 1 -45 27 -37 35 4 5 -1 5 -10 2 -10 -4 -18 -2 -18 4 0 6 -5 7 -12 3
-8 -5 -9 -2 -5 10 4 10 3 15 -3 11 -5 -3 -17 3 -27 14 -14 16 -20 18 -32 8
-12 -9 -13 -9 -7 1 4 7 2 12 -5 12 -6 0 -18 8 -26 18 -8 9 -12 12 -9 6 3 -6
-1 -11 -8 -11 -9 0 -12 7 -8 15 4 11 1 14 -11 9 -9 -3 -17 -2 -17 3 0 6 -9 10
-20 10 -11 0 -20 5 -20 11 0 5 -4 8 -9 5 -5 -4 -11 -1 -13 4 -2 6 -13 12 -26
13 -12 0 -22 5 -22 10 0 4 -4 6 -9 2 -5 -3 -17 2 -25 11 -12 11 -16 12 -16 2
0 -10 -2 -10 -8 -1 -4 7 -18 11 -31 8 -18 -3 -21 -2 -11 10 13 15 -4 16 -29 1
-10 -6 -12 -5 -7 2 4 7 2 12 -4 12 -8 0 -8 6 0 20 6 11 7 20 3 20 -4 0 -1 5 7
10 13 8 13 10 1 10 -11 0 -9 4 5 15 16 13 17 16 4 25 -13 8 -12 10 3 10 10 0
15 5 12 10 -4 6 -1 18 7 27 9 12 9 15 1 9 -9 -5 -11 -2 -7 8 3 9 10 14 14 11
5 -3 11 -1 14 4 4 5 1 13 -5 17 -8 5 -9 3 -4 -6 5 -9 4 -11 -3 -6 -9 5 -9 13
-2 27 6 10 13 19 16 19 3 0 2 -5 -2 -12 -4 -7 -3 -8 5 -4 6 4 8 13 4 19 -11
17 -13 38 -3 32 13 -8 19 22 7 34 -9 10 -9 12 3 9 10 -2 14 3 12 15 -2 9 2 17
8 17 5 0 10 5 10 11 0 5 -6 7 -12 4 -7 -4 -5 0 4 8 10 8 15 17 11 20 -3 4 -1
13 6 21 9 11 9 15 -1 19 -8 3 -6 6 5 6 10 1 15 6 12 12 -4 5 1 19 11 30 17 19
17 20 -2 14 -17 -6 -17 -5 -3 7 9 7 14 19 12 26 -3 6 -1 12 4 12 16 0 8 45 -8
46 -34 2 -40 5 -35 13 3 4 -6 7 -19 5 -14 -1 -25 2 -25 8 0 5 -9 6 -21 3 -13
-5 -19 -3 -15 3 11 18 -44 35 -56 17 -5 -6 -8 -3 -8 7 0 9 -5 20 -12 24 -7 4
-8 3 -4 -4 11 -19 -14 -14 -32 6 -10 10 -12 11 -7 3 8 -12 7 -12 -11 -3 -12 6
-25 8 -29 4 -5 -4 -5 -1 -1 6 5 8 0 12 -13 12 -12 0 -21 6 -21 13 0 8 -4 7
-10 -3 -6 -10 -10 -11 -10 -2 0 6 -7 12 -15 12 -8 0 -15 5 -15 11 0 8 -4 8
-14 -1 -12 -9 -17 -8 -28 9 -10 16 -15 18 -27 8 -12 -9 -13 -9 -7 1 5 8 0 12
-13 12 -12 0 -21 5 -21 11 0 5 -5 7 -11 3 -6 -3 -25 4 -42 17 -24 17 -28 18
-17 4z m-466 -543 c3 -5 -1 -9 -9 -9 -8 0 -12 4 -9 9 3 4 7 8 9 8 2 0 6 -4 9
-8z m-804 -861 c-5 -11 -15 -23 -21 -27 -6 -3 -3 5 6 20 20 30 30 35 15 7z"/>
<path d="M2050 4599 c0 -5 5 -7 10 -4 6 3 10 8 10 11 0 2 -4 4 -10 4 -5 0 -10
-5 -10 -11z"/>
<path d="M1724 4069 c-19 -22 -19 -22 4 -8 12 8 22 17 22 21 0 12 -6 9 -26
-13z"/>
<path d="M470 2499 c0 -5 5 -7 10 -4 6 3 10 8 10 11 0 2 -4 4 -10 4 -5 0 -10
-5 -10 -11z"/>
<path d="M256 1788 c3 -5 10 -6 15 -3 13 9 11 12 -6 12 -8 0 -12 -4 -9 -9z"/>
<path d="M1420 606 c0 -3 9 -10 20 -16 11 -6 20 -8 20 -6 0 3 -9 10 -20 16
-11 6 -20 8 -20 6z"/>
<path d="M3506 472 c-3 -5 1 -9 9 -9 8 0 12 4 9 9 -3 4 -7 8 -9 8 -2 0 -6 -4
-9 -8z"/>
<path d="M2506 48 c3 -5 10 -6 15 -3 13 9 11 12 -6 12 -8 0 -12 -4 -9 -9z"/>
</g>
</svg>
