<?xml version="1.0" standalone="no"?>
<!DOCTYPE svg PUBLIC "-//W3C//DTD SVG 20010904//EN"
 "http://www.w3.org/TR/2001/REC-SVG-20010904/DTD/svg10.dtd">
<svg version="1.0" xmlns="http://www.w3.org/2000/svg"
 width="294.000000pt" height="294.000000pt" viewBox="0 0 294.000000 294.000000"
 preserveAspectRatio="xMidYMid meet">
<metadata>
Created by potrace 1.14, written by Peter Selinger 2001-2017
</metadata>
<g transform="translate(0.000000,294.000000) scale(0.100000,-0.100000)"
fill="#000000" stroke="none">
<path d="M1315 2839 c-88 -34 -161 -62 -163 -64 -3 -3 10 -46 69 -229 16 -50
28 -91 26 -92 -1 -1 -39 -16 -85 -34 -299 -115 -539 -433 -642 -850 -11 -47
-25 -99 -31 -117 l-10 -32 -35 15 c-77 32 -166 14 -223 -47 -40 -42 -53 -91
-45 -176 5 -53 1 -92 -15 -164 -26 -117 -32 -183 -19 -223 44 -130 215 -184
330 -104 l27 19 22 -43 c96 -189 284 -365 490 -458 52 -23 82 -43 96 -65 29
-44 105 -92 188 -118 93 -29 269 -30 363 -2 76 22 173 82 197 122 11 20 41 39
93 63 207 93 395 269 491 458 l21 42 42 -27 c57 -38 142 -39 213 -1 60 31 84
61 100 124 12 49 4 123 -27 244 -8 30 -13 78 -11 105 8 86 5 133 -11 162 -15
30 -57 70 -95 91 -31 18 -110 17 -155 -2 -36 -15 -37 -15 -46 10 -5 13 -17 55
-25 92 -37 161 -109 342 -182 460 -18 29 -33 55 -33 58 0 3 -24 35 -54 72
-120 149 -246 244 -393 297 -36 13 -67 26 -70 29 -4 3 43 162 92 312 2 8 -164
76 -315 128 -8 2 -87 -22 -175 -55z"/>
</g>
</svg>
