<?xml version="1.0" encoding="utf-8"?>
<!-- Generator: Adobe Illustrator 25.2.0, SVG Export Plug-In . SVG Version: 6.00 Build 0)  -->
<svg version="1.1" xmlns="http://www.w3.org/2000/svg" xmlns:xlink="http://www.w3.org/1999/xlink" x="0px" y="0px"
	 viewBox="0 0 316 376.9" style="enable-background:new 0 0 316 376.9;" xml:space="preserve">
<style type="text/css">
	.st0{fill:#0071B6;}
	.st1{fill:#1A1A1A;}
	.st2{fill:#FFFFFF;}
	.st3{fill:#D32F2F;}
	.st4{fill:#CDAB89;}
	.st5{fill:#FF9522;}
	.st6{fill:#FCCFAA;}
	.st7{fill:#FFE9D9;}
	.st8{fill:#F6BC01;}
	.st9{fill:#F17400;}
	.st10{fill:#C97F1E;}
	.st11{fill:#9A0007;}
	.st12{fill:#2E0000;}
	.st13{fill:#FFB2AE;}
</style>
<symbol  id="ะตัะต_2" viewBox="-23.7 -23.7 51.8 47.4">
	<circle class="st0" cx="0" cy="0" r="23.7"/>
	<circle class="st1" cx="0" cy="0" r="13.8"/>
	<circle class="st2" cx="18.6" cy="-7.6" r="9.5"/>
</symbol>
<g id="Logo_x5F_2">
	<g>
		<path d="M-380.9,51.5c0.8,9.2,1.2,16.5,1.2,22.3c0.1,2.7,0,5.2-0.1,7.5c0,0.4,0,0.7-0.1,1.1c-0.3,4.6-0.8,8.1-1.1,9.7
			c0,0.1,0,0.1,0,0.1c-5.5,7-14.2,11.7-25.9,14.2c-0.6,0.1-1.2,0.2-1.7,0.3c-0.2-0.1-0.3-0.2-0.5-0.3c-9.3-6.8-11.3-20.1-11.3-20.2
			l-0.8-5.8l-5.4,2.4c-3.3,1.5-6.5,4.3-9,6.9c-10.2-26-28.3-49.5-51.7-67.1c3.5-3.4,5.7-8.5,4.8-14.8c-0.7-5.2-2-10.3-3.1-14.8
			l-0.4-1.4c-0.7-2.9-0.7-5.9,0-8.8c1.4-5.5-0.3-11.2-4.4-15.2c-4.1-4-9.8-5.4-15.4-3.9c-2.1,0.6-3.8,1.3-5.2,2.1
			c-0.5-1.4-1.1-2.8-1.7-4.1c-2-11.1-15-69.3-62.9-81.8l8.5-27.1l-27.6-10.3l-27.6,10.3l8.4,26.8c-52,12-61.7,72.1-63,82.4
			c-0.6,1.3-1.1,2.6-1.6,3.9c-1.5-0.8-3.3-1.6-5.5-2.3c-5.5-1.6-11.2-0.1-15.4,3.9c-4.1,4-5.8,9.7-4.4,15.2c0.7,2.9,0.7,5.9,0,8.8
			l-0.3,1.4c-1.1,4.5-2.4,9.5-3.1,14.8c-0.9,6.4,1.3,11.5,4.9,14.9c-2.3,1.7-4.6,3.5-6.8,5.4c-1.2-11.6-6-31.3-23.6-47.7
			c18.2-19.8,27.3-39.9,26.9-59.8c-0.3-17.7-8-30.8-13.4-38c19.4-4.7,33.8-14.2,42.8-28.4c13.7-21.6,11-47.8,8.8-59.6
			c37.8,3.3,60-9.7,72.1-21.5c13.8-13.4,17.7-28.1,18-29.1c0,0,0,0,0,0l-1.4-8.7c-0.3,0-3,0.4-7.5,1.5
			c-65.5,13.5-113.7,46.1-143.2,96.9c-17.5,30.1-28.5,66.8-32.6,109.1c-3.3,33.6-2.4,70.9,2.9,110.7c1.6,12.5,3.6,24.5,5.7,35.8
			c-2.2,5.6-4.1,11.4-5.6,17.2c-2.6,10.1-4.1,20.4-4.4,30.9c0,1.4-0.1,2.8-0.1,4.2c0,1.4,0,2.8,0.1,4.3c0,0.4,0,0.8,0,1.2
			c-8.9,10.2-15.4,21.3-19.5,32.7c-1.4,3.8-2.4,7.7-3.2,11.6c-1.1,5.4-1.6,10.8-1.6,16.2c0,10.7,2.1,21.2,6.2,31.3v0
			c2.5,6.1,5.6,12,9.5,17.8v0c4.1,6.2,9,12.1,14.7,17.8c10.9,10.9,24.3,20.6,39.6,28.7c0.2,0.1,0.5,0.3,0.8,0.4c0,0,0,0,0,0
			c-47.7,4.1-78.4,10.4-78.4,17.6c0,12.3,89.5,22.2,200,22.2c110.5,0,200-9.9,200-22.2c0-7.1-30.2-13.5-77.2-17.5c0,0,0,0,0,0h0
			c0,0,0,0,0.1,0c0.2-0.1,0.3-0.2,0.5-0.2c0.1,0,0.1-0.1,0.1-0.1c0.1,0,0.2-0.1,0.4-0.2c0.3-0.1,0.5-0.3,0.8-0.4l0,0
			c24.7-13.2,43.5-30,55.2-48.7c3.4-5.4,6.2-11,8.4-16.7c3.7-9.6,5.6-19.6,5.6-29.8c0-4.9-0.5-9.8-1.3-14.7
			c-0.8-4.3-1.9-8.6-3.4-12.8v0c-0.2-0.7-0.5-1.3-0.7-2c1.2-0.9,2.4-1.7,3.5-2.7c0.7,0,1.5,0.1,2.4,0.1c8.2,0,25.8-1.3,37.3-11.4
			l6.6-5.8l-8.7-1.7c-4.2-0.9-11.1-2.6-15.8-4.6c0.8-1.1,1.5-2.2,2.3-3.3c1.6-2.3,3-4.6,4.4-6.9c7.7-12.8,12.2-24.3,14-29.4
			c7.8-0.9,14.5-3.1,20.1-5.8c15.3-7.5,22.7-19.2,23.2-19.9l3.8-6.2C-313.9,80.3-350.4,83-380.9,51.5z M-619.9-242
			c13.3-6.4,25-10,32.6-11.9c-2,4.8-6.2,13-14.1,20.7c-14.7,14.4-35.3,20.9-61.3,19.3C-647.4-227.2-632.2-236.1-619.9-242z
			 M-697.5-173.8c6.9-10.5,14.3-19.7,21.9-27.7c1.8,11.4,3.2,33.5-8,51.1c-7.7,12.1-20.2,20.3-37.3,24.5
			C-714.8-143.3-707-159.2-697.5-173.8z M-725.5-111.4c4.6,6.2,10.9,17.4,11.2,32.2c0.3,17-7.4,34.3-22.8,51.7
			C-736.6-58.2-732.7-86.1-725.5-111.4z M-731.8,51.8c-3.1-22.3-4.9-43.5-5.2-63.7c18.7,18.5,19.8,41.4,19.8,47.6
			C-722.5,40.7-727.4,46.1-731.8,51.8z"/>
		<g>
			<g>
				<g>
					<g>
						<g>
							<g>
								<path d="M-716.9,303.5c-0.4,0-0.9,0.1-1.3,0.1l0.6-0.5C-717.4,303.3-717.2,303.4-716.9,303.5z"/>
								<path d="M-472.4,303.7C-472.4,303.7-472.4,303.7-472.4,303.7C-472.4,303.7-472.4,303.7-472.4,303.7L-472.4,303.7z"/>
							</g>
						</g>
						<g>
							<g>
								<path d="M-759.8,313.2c-2.2-0.9-4.3-2.1-6.3-3.6c0,0,0,0,0,0h0C-764.1,311-762,312.2-759.8,313.2z"/>
								<polygon points="-467.2,308 -472.4,303.7 -472.4,303.7 -472.4,303.7 								"/>
							</g>
							<g>
								<path class="st3" d="M-427.5,94c1.3,4.1,3.6,9.4,7.5,14c-4,0.2-7.5,0.2-9.7,0c-0.7-3-1.5-5.9-2.5-8.9
									C-431,97.7-429.3,95.7-427.5,94z"/>
							</g>
							<g>
								<path class="st4" d="M-508.2-25.5c1-0.8,2.6-1.7,5-2.4c2.5-0.7,5,0,6.9,1.7c1.9,1.8,2.6,4.3,2,6.8c-1.1,4.3-1.1,8.7,0,13
									l0.4,1.4c1.1,4.5,2.2,9.1,2.9,13.9c0.9,6.2-3.4,9.1-7.4,9.8c-3.9,0.6-8.9-0.8-10-7c0-0.2-0.1-0.5-0.1-0.7
									C-507,5-506.1-1.4-506.1-8C-506.1-14-506.9-19.8-508.2-25.5z"/>
							</g>
							<g>
								<path class="st5" d="M-434.5,141.5c0,2.2-0.1,4.4-0.2,6.8c-0.6,12.6-3.1,25.1-7.3,37.1c-2.6,7.4-5.8,14.5-9.6,21.4
									l-19.8-11.2l-38.7-22c0.9-7,2.3-24.5-3.5-46.4c-0.2-0.6-0.3-1.3-0.5-1.9c-0.2-0.7-0.4-1.5-0.6-2.3l0,0v0l0,0
									c0,0-0.1,0-0.1,0c-38.9-12.5-67.9-28.2-87.9-41.6c2.5,0.3,5.2,0.5,8.1,0.5c23.4,0,31.3-11.4,33.2-14.9
									c22.1-8.2,39.7-24.4,48.8-44.6c0,0,0,0,0,0c3.3,3.5,8,5.2,12.6,5.2c1,0,2-0.1,3-0.2c0.4-0.1,0.9-0.2,1.3-0.3
									c3.9,2.8,7.6,5.7,11.2,8.8c0,0,0,0,0,0c20.2,17.4,35.4,39.6,43.4,63.7c1.5,4.5,2.7,9.1,3.7,13.5
									C-435.5,122.4-434.5,132-434.5,141.5z"/>
							</g>
							<g>
								<path class="st6" d="M-455.7,214.7c-0.3,0.8-0.6,1.6-0.9,2.5c-3.2,7.9-9.2,14-16.3,17.5c3.5-6.3,4.3-10.7,4.4-10.9l-8.6-1.6
									c0,0.1-1.5,7.1-8.6,15.9c-4.8,0.3-9.8-0.5-14.6-2.4c-0.1,0-0.2-0.1-0.2-0.1c11-8.2,16.1-17.4,16.3-17.8l-0.8-0.4l-6.9-3.7
									c0,0.1-2.5,4.5-7.6,9.6c-2.4,2.4-5.5,5.1-9.2,7.5c-3.7-3-6.7-6.7-8.8-10.9c12-5.4,17.8-10.3,18-10.5l-5.6-6.7
									c-0.1,0-5,4.1-15.3,8.9c-0.9-4.5-1-9.2,0-13.9c0.4-1.9,1-3.8,1.7-5.6c1.4-3.6,3.5-6.8,6-9.7l38.5,21.9L-455.7,214.7z"/>
							</g>
							<g>
								<path class="st3" d="M-519.1,175.1l-0.3,1.4c-2.1,2.4-3.9,5-5.4,7.7c-6.7,1.1-12.7,0.7-18.1-0.5
									c-16.3-3.8-26-16.1-29.7-21.6c17.1-17.4,39.9-25.4,51.6-28.5C-515.6,157.3-519.1,174.9-519.1,175.1z"/>
							</g>
							<g>
								<path class="st6" d="M-579,37.9h-32.4c7.3-4.2,15.9-4,16-4h0.3C-595,33.9-586.4,33.7-579,37.9z"/>
								<path class="st6" d="M-574.8,62c-5.8,1.4-11.9,2.1-18.2,2.2l-4.4,0c-6.3-0.2-12.4-1.1-18.3-2.5c-3.9-1-6.4-4.8-5.8-8.7
									c0.7-4,2.1-7.5,4.4-10.2c5.4,6.1,13.2,9.9,21.9,9.9c8.7,0,16.5-3.8,21.9-9.9c2.3,2.9,3.8,6.4,4.4,10.6
									C-568.3,57.3-570.9,61.1-574.8,62z"/>
							</g>
							<g>
								<path class="st6" d="M-514.9-8.3V-8c0,28.6-18.4,53.3-44.9,65c-0.2-8.7-2.9-15.9-8-21.3c-4.8-5.1-10.9-7.8-16.2-9.2
									c9.3-4,2.2-13.3,2.2-13.3c2.6,10.5-10.8,11.7-13.1,11.8c-0.2,0-0.5,0-0.7,0c-2.3-0.1-15.7-1.4-13.1-11.8
									c0,0-7.1,9.3,2.2,13.3c-5.3,1.3-11.4,4-16.2,9.2c-5,5.3-7.6,12.3-8,20.7c-25.9-12-43.6-36.3-43.6-64.4v-0.3
									c0.1-17.1,11.6-32.1,28.1-36.8c1.3-0.4,2.6-0.7,3.9-1h0c26-6.6,47.6-5.2,47.6-5.2s23.8-1.6,51.5,6.2
									C-526.6-40.5-515-25.4-514.9-8.3z"/>
							</g>
							<g>
								<path class="st7" d="M-698.3,9c0.7-4.8,1.8-9.4,2.9-13.9l0.4-1.4c1.1-4.3,1.1-8.7,0-13c-0.6-2.5,0.1-5,2-6.8
									c1.8-1.8,4.4-2.4,6.9-1.7c2.5,0.7,4.2,1.8,5.2,2.6c-1.3,5.6-2,11.4-2,17.3c0,6.4,0.8,12.5,2.3,18.5h0
									c-0.1,0.4-0.1,0.9-0.2,1.3c-1.1,6.2-6.1,7.6-10,7C-694.9,18.1-699.1,15.2-698.3,9z"/>
							</g>
							<g>
								<path class="st5" d="M-532.7,193.6c0.6,0,1.3,0,1.9,0c-20.4,5.2-41.8,7.9-63.8,7.9c-6.7,0-13.3-0.3-19.8-0.7
									c-9.8-0.7-19.4-2-28.9-3.8c0,0,0,0,0,0v0c-6.3-1.2-12.5-2.6-18.6-4.3c-0.6-2.5-1.3-5-2.4-7.4c-1.5-3.6-3.5-6.9-5.8-9.9
									c-0.8-4.6-3.4-24.7,3.9-49.1l-8.4-2.5c-5.2,17.5-5.8,32.7-5.2,42.6c-2.3-1.5-4.8-2.9-7.5-4c-6.9-2.8-14.1-3.6-21.1-2.8
									c-4.3-15.2-8.2-30-11.5-44.5C-724,97.6-727.4,80.5-730,64c9.8-14.1,22.1-26.5,36.6-36.8c0.4,0.1,0.7,0.2,1.1,0.2
									c1,0.2,2,0.2,3,0.2c4.7,0,9.4-1.8,12.8-5.4c6.7,15.2,18.3,28.1,32.9,37.1c4.1,4.6,38.8,41.1,113.5,67.8
									c-14.1,4.5-35.1,13.8-51.2,31.5l-2.1,2.3l1.4,2.7C-581.7,163.9-565.6,193.6-532.7,193.6z"/>
							</g>
							<g>
								<path class="st6" d="M-697.7,229.1c6,0,11.4-0.7,16-1.7c-9.2,7.7-22.3,10.2-34.2,5.4c-10-4.1-17-12.5-19.7-22.2l0.1-0.1
									c-0.1-0.2-0.2-0.3-0.3-0.5c-1.8-6.7-1.4-14.1,1.4-21c5.3-13,17.9-20.9,31.2-20.9c4.2,0,8.5,0.8,12.6,2.5
									c1.3,0.5,2.6,1.1,3.8,1.8c-3,3.6-9.8,9.6-23.9,13.4l2.3,8.5c16.4-4.4,24.7-11.8,28.6-16.6c3.2,3.1,5.7,6.8,7.5,11
									c0.2,0.4,0.4,0.9,0.5,1.3c-4.3,3.7-16.2,12.4-34.6,13.3l0.4,8.7c17.2-0.8,29.4-7.6,36.2-12.5c0.3,5-0.5,10-2.4,14.8
									c-0.2,0.4-0.4,0.8-0.5,1.2c-4.2,1.7-17,6.1-32.3,4.4l-1,8.7C-703.1,229-700.3,229.1-697.7,229.1z"/>
							</g>
							<g>
								<path class="st3" d="M-721.7-162c13.1-22.5,30.1-41.3,50.8-56.3c-1.5,1.4-3.1,2.8-4.6,4.3c-0.3,0.2-0.5,0.4-0.7,0.6
									c0,0-0.1,0.1-0.1,0.1c-9.9,9.6-19.6,20.9-28.4,34.5c-10.9,16.8-19.7,35.5-26.3,56c-0.1,0.2-0.7,2.1-0.7,2.3
									c-6.7,21.7-11.1,45.3-12.9,70.8c-4.4,60.2,5,131.2,27.8,211.3c-2.9,1-5.7,2.3-8.4,3.9c-4.8-15.1-18.1-59.4-25.2-113.5
									C-758.4-9.3-760-96.2-721.7-162z"/>
							</g>
							<g>
								<path class="st8" d="M-749.9,106.4c7.1,32.9,14.7,57,17.3,64.9c-4.1,4-7.5,8.9-9.8,14.5c-0.9,2.2-1.6,4.4-2.1,6.7
									c-5.8-14.1-9.1-28.8-9.9-44.1c-0.1-2.5-0.2-4.7-0.2-6.9C-754.6,129.6-753,117.8-749.9,106.4z"/>
							</g>
							<g>
								<path class="st5" d="M-685.8,307.6c-16.9-6-31.8-13.5-44.5-22.1c-30.8-20.9-48.6-48.5-48.6-78c0-16.5,5.7-32.8,16.7-47.8
									c2.4,18.9,8.6,36.9,18.4,53.8c1.7,5.8,4.6,11.2,8.6,15.9v0c4.2,4.9,9.6,8.9,16,11.5c3.5,1.4,7,2.3,10.5,2.8L-685.8,307.6z"
									/>
							</g>
							<g>
								<path class="st3" d="M-657.4,331.5h-10.4l-31.5-87.7c3.2-0.3,6.3-1,9.3-2L-657.4,331.5z"/>
							</g>
							<g>
								<path class="st5" d="M-537.4,317.1c-18.4,3.8-37.6,5.7-57.2,5.7c-9.6,0-19.1-0.5-28.4-1.4c-10.4-1-20.6-2.6-30.5-4.7
									l-28.4-78.5c7.8-4.5,14.3-11.6,17.9-20.6c2-5.1,3.1-10.4,3.1-15.7c4.7,1.2,9.5,2.3,14.4,3.3c0.2,0.3,0.4,0.6,0.6,0.9
									c28.1,42.5,70.3,61.7,101.7,70.3L-537.4,317.1z"/>
							</g>
							<g>
								<path class="st6" d="M-492.1,303.2c-8.6,3.6-17.6,6.8-27.1,9.4c-3.2,0.9-6.4,1.7-9.7,2.5l-6.4-37.9l0,0l-0.2-0.9
									c7.7-1.2,24.2-2.6,27.7,8.1C-504.9,293.3-499.4,299.9-492.1,303.2z"/>
							</g>
							<g>
								<path class="st5" d="M-410.3,207.5c0,33.8-23.7,65.8-65.1,87.8c-3.4,1.8-8.2,1.9-12.3,0.3c-3.8-1.5-9-5.1-11.7-13.8
									c-6.4-19.9-34.8-14.8-41-13.4c0,0,0,0-0.1,0c-28.5-7.6-67-24.3-93.9-61c13,1.9,26.3,2.9,39.8,2.9c2.7,0,5.4,0,8.1-0.1
									c19.4-0.6,38.4-3.2,56.5-7.7c-0.9,17.7,9.4,34.4,26.4,41.3c5.2,2.1,10.6,3.1,15.9,3.1c16.7,0,32.6-10,39.3-26.4
									c0.5-1.2,0.9-2.5,1.3-3.8l0.9-1.5c4.7-7.8,8.6-16,11.7-24.4c6.9-1.6,13.6-4.2,20-7.9C-411.7,190.9-410.3,199.1-410.3,207.5z
									"/>
							</g>
							<g>
								<path class="st3" d="M-377.8,162.4c-5.2,2.2-10.8,3.2-15.6,3.7c2.2-2.2,4.3-4.6,6.3-7.2
									C-384.3,160.3-380.9,161.4-377.8,162.4z"/>
							</g>
							<g>
								<path class="st3" d="M-329.9,87.7c-5.8,6.1-17.1,14.8-34.6,16l-3,0.2c0,0,0,0,0,0l-0.9,2.8c-0.1,0.2-7.4,23.2-23.3,43.9
									c-4.7,6-9.6,11.4-14.8,15.8l-1.2,1c-2.3,1.9-4.6,3.6-7.1,5.2c-5.3,3.5-10.8,6.2-16.5,8c3-10.4,4.8-21.1,5.3-31.9
									c0.1-2.6,0.2-5,0.2-7.3c0-7-0.5-13.9-1.5-20.8c0,0,0,0,0,0c-0.2-1.3-0.4-2.5-0.6-3.8c4.6,0.1,11.5,0,19.1-1.3
									c16.1-2.7,28-9.1,35.4-19l0.6-0.8l0.2-0.9c0.1-0.6,2.4-11,1.6-24.9C-363,76.6-349.4,84.7-329.9,87.7z"/>
							</g>
							<g>
								<path d="M-379.9,82.3c-0.3,6.2-1,9.1-1.1,9.7C-380.7,90.4-380.2,87-379.9,82.3z"/>
							</g>
							<g>
								<path class="st2" d="M-612.7-142.1l18.2-5.7v25.4c0,0-7,0.4-11.6,1.8L-612.7-142.1z"/>
							</g>
							<g>
								<path class="st7" d="M-630.6,56.4c-25.9-12-43.6-36.3-43.6-64.4v-0.3c0.1-17.1,11.7-32.1,28.1-36.8c1.3-0.4,2.6-0.7,3.9-1h0
									c0,0-18.4,16.8-13.8,45.5C-651.3,28.1-641.1,43.4-630.6,56.4z"/>
							</g>
							<g>
								<path class="st4" d="M-558.5,56.4c25.9-12,43.6-36.3,43.6-64.4v-0.3c-0.1-17.1-11.7-32.1-28.1-36.8c-1.3-0.4-2.6-0.7-3.9-1
									h0c0,0,18.4,16.8,13.8,45.5S-548.1,43.4-558.5,56.4z"/>
							</g>
							<g>
								<path class="st7" d="M-702.9,235.2c-4.3,0.1-8.7-0.7-13-2.5c-10-4.1-17-12.5-19.7-22.2l0.1-0.1c-0.1-0.2-0.2-0.3-0.3-0.5
									c-1.8-6.7-1.4-14.1,1.4-21c5.3-13,17.9-20.9,31.2-20.9c0.1,0,0.2,0,0.3,0c-13.8,4.9-23.7,18.1-23.7,33.6
									C-726.6,217.2-716.7,230.4-702.9,235.2z"/>
							</g>
							<g>
								<path class="st8" d="M-730.3,285.5c-30.8-20.9-48.6-48.5-48.6-78c0-16.5,5.7-32.8,16.7-47.8c2.4,18.9,8.6,36.9,18.4,53.8
									c1.7,5.8,4.6,11.2,8.6,15.9v0C-735.2,229.4-751.2,257.3-730.3,285.5z"/>
							</g>
							<g>
								<path class="st8" d="M-643.6,59.4c0,0-52-7.4-69.4,34.6c-3.1,7.4-5.3,14.5-6.9,21.2C-724,97.6-727.4,80.5-730,64
									c9.8-14.1,22.1-26.5,36.6-36.8c0.4,0.1,0.7,0.2,1.1,0.2c1,0.2,2,0.2,3,0.2c4.7,0,9.4-1.8,12.8-5.4
									C-669.9,37.5-658.3,50.4-643.6,59.4z"/>
							</g>
							<g>
								<path class="st9" d="M-614.4,200.7c-9.8-0.7-19.4-2-28.9-3.8c0,0,0,0,0,0v0c-6.3-1.2-12.5-2.6-18.6-4.3
									c-0.6-2.5-1.3-5-2.4-7.4c-1.5-3.6-3.5-6.9-5.8-9.9c-0.8-4.6-3.4-24.7,3.9-49.1C-666.2,126.3-659.3,183.8-614.4,200.7z"/>
							</g>
							<g>
								<path class="st9" d="M-541.3,104c8.1,7.1,17.7,14.6,26.5,19.1c-38.9-12.5-67.9-28.2-87.9-41.6c2.5,0.3,5.2,0.5,8.1,0.5
									c23.4,0,31.3-11.4,33.2-14.9c22.1-8.2,39.7-24.4,48.8-44.6c-0.3,1.2-8.6,30.8-29.3,50.1C-551.1,81.1-550.7,95.7-541.3,104z"
									/>
							</g>
							<g>
								<path class="st10" d="M-514.7,123.1C-514.7,123.1-514.7,123.1-514.7,123.1C-514.7,123.1-514.7,123.1-514.7,123.1
									L-514.7,123.1z"/>
							</g>
							<g>
								<path class="st9" d="M-540.4,268.3c-28.5-7.6-67-24.3-93.9-61c13,1.9,26.3,2.9,39.8,2.9c2.7,0,5.4,0,8.1-0.1
									C-585.8,219.6-580.7,257.4-540.4,268.3z"/>
							</g>
							<g>
								<path class="st4" d="M-499.6,223.1c-2.4,2.4-5.5,5.1-9.2,7.5c-3.7-3-6.7-6.7-8.8-10.9C-510.7,222.8-504.7,223.6-499.6,223.1
									z"/>
							</g>
							<g>
								<path class="st4" d="M-474.2,204.1l18.6,10.6c-0.3,0.8-0.6,1.6-0.9,2.5c-3.2,7.9-9.2,14-16.3,17.5
									c3.5-6.3,4.3-10.7,4.4-10.9l-8.6-1.6c0,0.1-1.5,7.1-8.6,15.9c-4.8,0.3-9.8-0.5-14.6-2.4c-0.1,0-0.2-0.1-0.2-0.1
									c11-8.2,16.1-17.4,16.3-17.8l-0.8-0.4C-477.7,211.6-474.2,204.1-474.2,204.1z"/>
							</g>
							<g>
								<path class="st9" d="M-434.5,141.5c0,2.2-0.1,4.4-0.2,6.8c-0.6,12.6-3.1,25.1-7.3,37.1c-2.6,7.4-5.8,14.6-9.6,21.4
									l-19.8-11.2c41.9-94.6-12.3-158.2-13.2-159.7c20.2,17.4,35.4,39.6,43.4,63.7c1.5,4.5,2.7,9.1,3.7,13.5
									C-435.5,122.4-434.5,132-434.5,141.5z"/>
							</g>
							<g>
								<path class="st11" d="M-521,133.6c5.4,23.7,1.9,41.3,1.9,41.4l-0.3,1.4c-2.1,2.4-3.9,5-5.4,7.7c-6.7,1.1-12.7,0.7-18.1-0.5
									C-518.3,181-521,133.6-521,133.6z"/>
							</g>
							<g>
								<path class="st11" d="M-367.5,104l-0.9,2.8c-0.1,0.2-7.4,23.2-23.3,43.9c-4.7,6-9.6,11.4-14.8,15.8l-1.2,1
									c-2.3,1.9-4.6,3.6-7.1,5.2c-5.3,3.5-10.8,6.2-16.5,8c3-10.4,4.8-21.1,5.3-31.9c0.1-2.6,0.2-5,0.2-7.3c0-7-0.5-13.9-1.5-20.8
									c1.3,4.3,5.2,12,17,21.3C-392,156.3-368.1,105.4-367.5,104z"/>
							</g>
							<g>
								<circle cx="-542.3" cy="162.3" r="5.8"/>
							</g>
							<g>
								<path class="st12" d="M-418,134.6c-0.2,0-0.5-0.1-0.7-0.2c-0.5-0.4-0.6-1.1-0.2-1.5c1.5-1.9,2.1-3.8,1.8-5.5
									c-0.6-2.8-3.4-4.4-3.4-4.4c-0.5-0.3-0.7-1-0.4-1.5c0.3-0.5,1-0.7,1.5-0.4c0.2,0.1,3.7,2.1,4.5,5.9c0.5,2.4-0.3,4.8-2.2,7.3
									C-417.4,134.5-417.7,134.6-418,134.6z"/>
							</g>
							<g>
								<path class="st12" d="M-416,152c-0.2,0-0.5-0.1-0.7-0.2c-0.5-0.4-0.6-1.1-0.2-1.5c1.5-1.9,2.1-3.8,1.8-5.5
									c-0.5-2.8-3.4-4.4-3.4-4.5c-0.5-0.3-0.7-1-0.4-1.5c0.3-0.5,1-0.7,1.5-0.4c0.2,0.1,3.7,2.1,4.5,5.9c0.5,2.4-0.3,4.8-2.2,7.3
									C-415.4,151.8-415.7,152-416,152z"/>
							</g>
							<g>
								<path class="st12" d="M-405.1,136.1c-0.2,0-0.5-0.1-0.7-0.2c-0.5-0.4-0.6-1.1-0.2-1.5c1.5-1.9,2.1-3.8,1.8-5.5
									c-0.6-2.8-3.4-4.4-3.4-4.4c-0.5-0.3-0.7-1-0.4-1.5c0.3-0.5,1-0.7,1.5-0.4c0.2,0.1,3.7,2.1,4.5,5.9c0.5,2.4-0.3,4.8-2.2,7.3
									C-404.4,136-404.7,136.1-405.1,136.1z"/>
							</g>
							<g>
								<path class="st12" d="M-402,155.7c-0.2,0-0.5-0.1-0.7-0.2c-0.5-0.4-0.6-1.1-0.2-1.5c1.5-1.9,2.1-3.8,1.8-5.5
									c-0.5-2.8-3.4-4.4-3.4-4.5c-0.5-0.3-0.7-1-0.4-1.5c0.3-0.5,1-0.7,1.5-0.4c0.2,0.1,3.7,2.1,4.5,5.9c0.5,2.4-0.3,4.8-2.2,7.3
									C-401.4,155.5-401.7,155.7-402,155.7z"/>
							</g>
							<g>
								<path class="st12" d="M-393.5,140.4c-0.2,0-0.5-0.1-0.7-0.2c-0.5-0.4-0.6-1.1-0.2-1.5c1.5-1.9,2.1-3.8,1.8-5.5
									c-0.5-2.8-3.4-4.4-3.4-4.5c-0.5-0.3-0.7-1-0.4-1.5c0.3-0.5,1-0.7,1.5-0.4c0.2,0.1,3.7,2.1,4.5,5.9c0.5,2.4-0.3,4.8-2.2,7.3
									C-392.8,140.3-393.1,140.4-393.5,140.4z"/>
							</g>
							<g>
								<path class="st12" d="M-414,169.4c-0.2,0-0.5-0.1-0.7-0.2c-0.5-0.4-0.6-1.1-0.2-1.5c1.5-1.9,2.1-3.8,1.8-5.5
									c-0.5-2.8-3.4-4.4-3.4-4.5c-0.5-0.3-0.7-1-0.4-1.5c0.3-0.5,1-0.7,1.5-0.4c0.2,0.1,3.7,2.1,4.5,5.9c0.5,2.4-0.3,4.8-2.2,7.3
									C-413.4,169.2-413.7,169.4-414,169.4z"/>
							</g>
							<g>
								<path class="st2" d="M-665.6-46.1c0,0,6.8-53.3,52.8-67.3c0,0-27.4,15.6-33.1,58C-645.8-55.3-654.6-53-665.6-46.1z"/>
							</g>
							<g>
								<path class="st4" d="M-519.2,312.6c-3.2,0.9-6.4,1.7-9.7,2.5l-6.4-37.9L-519.2,312.6z"/>
							</g>
						</g>
					</g>
					<path class="st9" d="M-623,321.4c-10.4-1-20.6-2.6-30.5-4.7l-28.4-78.5c7.8-4.5,14.3-11.6,17.9-20.6c2-5.1,3.1-10.4,3.1-15.7
						c0,0,4.8,11,1.3,23.7c-4,14.2-2.3,29.5,5.2,42.2L-623,321.4z"/>
				</g>
			</g>
			<circle class="st13" cx="-553" cy="18.8" r="9.4"/>
			<circle class="st13" cx="-637.5" cy="18.8" r="9.4"/>
			<path d="M-544.9-5.6c0,0-8.3-10.1-27.7-10.1c-1.4,0-2.6,1.1-2.6,2.5v0c0,1.4,1.1,2.5,2.5,2.5C-567.1-10.5-553.3-9.8-544.9-5.6z"
				/>
			<path d="M-563.4-24.8c4.2,1.1,12.4,4.1,19.1,11.2c0,0,0.7-12.2-16.7-18.6c-2.6-1-5.4,1-5.3,3.8v0
				C-566.2-26.6-565-25.2-563.4-24.8z"/>
			<path d="M-645.5-5.6c0,0,8.3-10.1,27.7-10.1c1.4,0,2.6,1.1,2.6,2.5v0c0,1.4-1.1,2.5-2.5,2.5C-623.3-10.5-637.1-9.8-645.5-5.6z"/>
			<path d="M-627.1-24.8c-4.2,1.1-12.4,4.1-19.1,11.2c0,0-0.7-12.2,16.7-18.6c2.6-1,5.4,1,5.3,3.8v0
				C-624.2-26.6-625.4-25.2-627.1-24.8z"/>
			<g>
				<path d="M-595.2,60.1c-4.6,0-8.9-1-13-2.9c-0.6-0.3-0.9-1.1-0.6-1.7c0.3-0.6,1.1-0.9,1.7-0.6c3.7,1.7,7.7,2.6,11.9,2.6
					c4.2,0,8.1-0.9,11.8-2.6c0.6-0.3,1.4,0,1.7,0.6c0.3,0.6,0,1.4-0.6,1.7C-586.3,59.1-590.7,60.1-595.2,60.1z"/>
			</g>
		</g>
	</g>
</g>
<g id="Logo_x5F_1">
	<g>
		<path d="M299.1,247c-0.9-6.3-2.4-12.3-3.7-17.7l-0.4-1.7c-0.9-3.5-0.9-7,0-10.5c1.6-6.6-0.3-13.5-5.3-18.2
			c-4.9-4.8-11.8-6.5-18.4-4.6c-2.5,0.7-4.5,1.6-6.3,2.6c-0.6-1.7-1.3-3.3-2-5c-2.4-13.3-17.9-83-75.4-98l10.2-32.5l-32.6-12.2
			l-0.4-0.2l0,0l0,0l-0.4,0.2l-32.6,12.2l10.2,32.5c-57.5,15-72.9,84.7-75.4,98c-0.7,1.6-1.4,3.3-2,5c-1.7-1-3.8-1.9-6.3-2.6
			c-6.6-1.9-13.5-0.1-18.4,4.6c-4.9,4.8-6.9,11.6-5.3,18.2c0.9,3.5,0.9,7,0,10.5l-0.4,1.7c-1.3,5.4-2.8,11.4-3.7,17.7
			c-1.1,7.6,1.5,13.6,5.8,17.7c0,0,3.8,3.3,10.3,5.5c0.5,0.1,1,0.2,1.6,0.3c1.2,0.2,2.4,0.3,3.6,0.3c5.5,0,11.1-2,15.1-6.2
			c0,0,0,0,0,0c10.8,24.2,32,43.6,58.4,53.4c2.2,4.2,11.7,17.8,39.6,17.8c0,0,0.1,0,0.1,0c0,0,0,0,0,0c0,0,0,0,0,0c0,0,0.1,0,0.1,0
			c27.9,0,37.3-13.6,39.6-17.8c26.5-9.9,47.6-29.2,58.4-53.4c0,0,0,0,0,0c4,4.2,9.5,6.2,15.1,6.2c1.2,0,2.4-0.1,3.6-0.3
			c0.5-0.1,1-0.2,1.6-0.3c6.5-2.2,10.3-5.5,10.3-5.5C297.6,260.6,300.1,254.5,299.1,247z"/>
		<g>
			<g>
				<g>
					<g>
						<g>
							<g>
								<path class="st4" d="M268.2,207.1c1.2-0.9,3.1-2.1,6-2.8c3-0.8,6-0.1,8.3,2.1c2.2,2.2,3.1,5.2,2.4,8.2
									c-1.3,5.1-1.3,10.4,0,15.5l0.4,1.7c1.3,5.4,2.7,10.9,3.5,16.6c1,7.4-4.1,11-8.8,11.7s-10.7-1-12-8.4c0-0.3-0.1-0.6-0.1-0.8
									c1.9-7.3,3-15,3-22.9C270.7,220.9,269.8,213.9,268.2,207.1z"/>
							</g>
							<g>
								<path class="st6" d="M183.3,283h-38.8c8.8-5.1,19.1-4.8,19.2-4.8h0.4C164.3,278.3,174.6,278,183.3,283z"/>
								<path class="st6" d="M188.4,311.9c-7,1.6-14.3,2.5-21.8,2.7l-5.2,0c-7.5-0.2-14.9-1.3-21.9-3c-4.7-1.2-7.7-5.7-6.9-10.5
									c0.8-4.8,2.5-8.9,5.2-12.3c6.4,7.2,15.8,11.8,26.2,11.8c10.4,0,19.8-4.6,26.2-11.8c2.8,3.4,4.5,7.7,5.3,12.7
									C196.2,306.3,193.1,310.8,188.4,311.9z"/>
							</g>
							<g>
								<path class="st6" d="M260.2,227.7v0.4c0,34.2-22,63.9-53.9,77.9c-0.3-10.4-3.4-19-9.5-25.6c-5.8-6.2-13.1-9.3-19.4-11
									c11.1-4.8,2.6-15.9,2.6-15.9c3.1,12.5-12.9,14-15.7,14.2c-0.3,0-0.6,0-0.8,0c-2.8-0.2-18.8-1.7-15.7-14.2
									c0,0-8.5,11.1,2.6,15.9c-6.3,1.6-13.7,4.8-19.4,11c-6,6.4-9.1,14.7-9.5,24.8c-31-14.3-52.3-43.5-52.3-77.2v-0.4
									c0.1-20.5,14-38.5,33.7-44.1c1.6-0.4,3.1-0.9,4.7-1.2h0c31.2-7.9,57.1-6.2,57.1-6.2s28.5-1.9,61.8,7.5
									C246.2,189.2,260.1,207.2,260.2,227.7z"/>
							</g>
							<g>
								<path class="st7" d="M40.4,248.4c0.8-5.7,2.2-11.3,3.5-16.6l0.4-1.7c1.3-5.2,1.3-10.4,0-15.5c-0.7-3,0.2-6,2.4-8.2
									c2.2-2.1,5.3-2.9,8.3-2.1c3,0.9,5.1,2.1,6.2,3.1c-1.6,6.7-2.5,13.6-2.5,20.7c0,7.6,1,15,2.8,22.1h0
									c-0.1,0.5-0.2,1.1-0.3,1.6c-1.3,7.4-7.3,9.1-12,8.4C44.6,259.4,39.4,255.9,40.4,248.4z"/>
							</g>
							<g>
								<path class="st2" d="M143,67.3l21.8-6.8V91c0,0-8.4,0.4-13.9,2.2L143,67.3z"/>
							</g>
							<g>
								<path class="st7" d="M121.6,305.2c-31-14.3-52.3-43.5-52.3-77.2v-0.4c0.1-20.5,14-38.5,33.7-44c1.6-0.4,3.1-0.9,4.7-1.2h0
									c0,0-22.1,20.1-16.5,54.6C96.7,271.4,109,289.6,121.6,305.2z"/>
							</g>
							<g>
								<path class="st4" d="M207.9,305.2c31-14.3,52.3-43.5,52.3-77.2v-0.4c-0.1-20.5-14-38.5-33.7-44c-1.6-0.4-3.1-0.9-4.7-1.2h0
									c0,0,22.1,20.1,16.5,54.6S220.5,289.6,207.9,305.2z"/>
							</g>
							<g>
								<path class="st2" d="M79.7,182.4c0,0,8.2-63.9,63.3-80.6c0,0-32.8,18.7-39.7,69.5C103.3,171.3,92.8,174.2,79.7,182.4z"/>
							</g>
						</g>
					</g>
				</g>
			</g>
			<circle class="st13" cx="214.6" cy="260.1" r="11.3"/>
			<circle class="st13" cx="113.3" cy="260.1" r="11.3"/>
			<path d="M224.2,231c0,0-10-12.1-33.2-12.1c-1.7,0-3.1,1.4-3.1,3v0c0,1.7,1.3,3,3,3C197.6,225.1,214.2,225.9,224.2,231z"/>
			<path d="M202.1,208c5,1.3,14.9,4.9,22.9,13.5c0,0,0.8-14.6-20-22.3c-3.2-1.2-6.5,1.2-6.3,4.6v0
				C198.7,205.8,200.1,207.5,202.1,208z"/>
			<path d="M103.7,231c0,0,10-12.1,33.2-12.1c1.7,0,3.1,1.4,3.1,3v0c0,1.7-1.3,3-3,3C130.3,225.1,113.7,225.9,103.7,231z"/>
			<path d="M125.8,208c-5,1.3-14.9,4.9-22.9,13.5c0,0-0.8-14.6,20-22.3c3.2-1.2,6.5,1.2,6.3,4.6v0
				C129.2,205.8,127.8,207.5,125.8,208z"/>
			<g>
				<path d="M164,309.7c-5.5,0-10.7-1.2-15.5-3.5c-0.8-0.4-1.1-1.3-0.7-2.1c0.4-0.8,1.3-1.1,2.1-0.7c4.4,2.1,9.2,3.2,14.2,3.2
					c5,0,9.8-1.1,14.2-3.2c0.8-0.4,1.7,0,2.1,0.7s0,1.7-0.7,2.1C174.6,308.5,169.4,309.7,164,309.7z"/>
			</g>
		</g>
	</g>
</g>
</svg>
