<svg width="300" height="320" viewBox="0 0 300 320" fill="none"
    xmlns="http://www.w3.org/2000/svg">

    <path  d="M272.908 231.86C272.908 237.318 270.223 242.239 265.478 244.744L154.203 308.988C149.548 311.672 143.819 311.672 139.432 308.988L27.8888 244.744C23.4127 242.239 20.4585 237.318 20.4585 231.86V103.373C20.4585 98.1831 23.4127 93.262 27.8888 90.4882L139.432 26.2446C143.819 23.5604 149.548 23.5604 154.203 26.2446L265.478 90.4882C270.223 93.262 272.908 98.1831 272.908 103.373V231.86Z" fill="url(#paint0_linear)"/>
    <path d="M230.301 210.445C230.301 214.084 228.51 217.365 225.347 219.035L151.164 261.864C148.061 263.654 144.241 263.654 141.317 261.864L66.9545 219.035C63.9704 217.365 62.001 214.084 62.001 210.445V124.787C62.001 121.327 63.9704 118.047 66.9545 116.198L141.317 73.3685C144.241 71.579 148.061 71.579 151.164 73.3685L225.347 116.198C228.51 118.047 230.301 121.327 230.301 124.787V210.445Z" fill="url(#paint1_linear)"/>
    <path d="M184.256 187.935C184.256 189.628 183.427 191.154 181.963 191.931L147.626 211.859C146.19 212.691 144.422 212.691 143.068 211.859L108.649 191.931C107.268 191.154 106.356 189.628 106.356 187.935V148.081C106.356 146.471 107.268 144.945 108.649 144.084L143.068 124.157C144.422 123.325 146.19 123.325 147.626 124.157L181.963 144.084C183.427 144.945 184.256 146.471 184.256 148.081V187.935Z" fill="url(#paint2_linear)"/>
    <path d="M171.071 183.011L146.009 198L120.926 183.011V153.011L146.009 138L171.071 153.011L160.639 159.256L146.009 150.491L131.379 159.256V176.744L146.009 185.509L160.639 176.744L171.071 183.011Z" fill="white"/>
    <defs>
        <linearGradient id="paint0_linear" x1="116.218" y1="-72.269" x2="-30.06" y2="186.147" gradientUnits="userSpaceOnUse">
            <stop stop-color="hsl(256, 96%, 52%)"/>
            <stop offset="1" stop-color="hsl(225, 72%, 89%)" />
        </linearGradient>
        <linearGradient id="paint1_linear" x1="125.84" y1="7.69272" x2="28.322" y2="179.97" gradientUnits="userSpaceOnUse">
            <stop stop-color="hsl(256, 96%, 52%)"/>
            <stop offset="1" stop-color="hsl(225, 72%, 89%)" />
        </linearGradient>
        <linearGradient id="paint2_linear" x1="135.905" y1="93.6002" x2="90.4118" y2="173.554" gradientUnits="userSpaceOnUse">
            <stop stop-color="hsl(162, 74%, 10%)"/>
            <stop offset="1" stop-color="hsl(162, 79%, 14%)"/>
        </linearGradient>
    </defs>
</svg>