<svg xmlns="http://www.w3.org/2000/svg" viewBox="0 0 518 550.91"><defs><style>.cls-1{fill:#d32f2f;}.cls-2{fill:#cdab89;}.cls-3{fill:#ff9522;}.cls-4{fill:#fccfaa;}.cls-5{fill:#ffe9d9;}.cls-6{fill:#f6bc01;}.cls-7{fill:#fff;}.cls-8{fill:#f17400;}.cls-9{fill:#c97f1e;}.cls-10{fill:#9a0007;}.cls-11{fill:#2e0000;}.cls-12{fill:#ffb2ae;}</style></defs><g id="Layer_2" data-name="Layer 2"><g id="Logo_1"><path d="M47.79,549.27H0V485.42H47.79V497.1H12v14.68H46.52V523H12v14.41H47.79Z"/><path d="M109,503.94c0,4.92-2.37,9.67-8.3,12.31,7.48,2.28,10.21,10.22,10.21,14.23,0,14.23-10.67,18.79-23.89,18.79H56.73V485.42H87C99.59,485.42,109,491.08,109,503.94Zm-40.41,7.11H87c7.57,0,10-3.19,10-6.84,0-2.92-2.37-7.84-10-7.84H68.58Zm0,27H87c4.92,0,11.94-1.64,11.94-7.66,0-5.75-7-8.76-11.94-8.76H68.58Z"/><path d="M119.47,549.27V485.42h11.95v63.85Z"/><path d="M184,500.84c-2.19-3.65-8.21-7.12-15.14-7.12-8.94,0-13.22,3.74-13.22,8.49,0,5.56,6.56,7.11,14.22,8,13.32,1.64,25.72,5.11,25.72,20.34,0,14.23-12.58,20.34-26.81,20.34-13,0-23.08-4-27.82-15.69l10-5.2c2.83,7,10.22,10.13,18,10.13,7.57,0,14.68-2.65,14.68-9.58,0-6-6.29-8.48-14.77-9.39-13-1.55-25.08-5-25.08-19.34,0-13.13,13-18.51,24.71-18.6,9.95,0,20.25,2.82,25.09,12.67Z"/><path d="M260.83,485.52v36.57c0,18.88-11.58,28.54-27.63,28.54-15.33,0-28.37-9.3-28.37-28.54V485.52h11.95v36.57c0,11.49,6.57,17.6,16.51,17.6s15.59-6.66,15.59-17.6V485.52Z"/><path d="M282.35,485.52V510H272.23V485.52Z"/><path d="M331.51,500.84c-2.19-3.65-8.21-7.12-15.14-7.12-8.94,0-13.23,3.74-13.23,8.49,0,5.56,6.57,7.11,14.23,8,13.31,1.64,25.72,5.11,25.72,20.34,0,14.23-12.59,20.34-26.81,20.34-13,0-23.08-4-27.82-15.69l10-5.2c2.83,7,10.22,10.13,18,10.13,7.57,0,14.68-2.65,14.68-9.58,0-6-6.29-8.48-14.77-9.39-13.05-1.55-25.08-5-25.08-19.34,0-13.13,12.95-18.51,24.71-18.6,9.94,0,20.25,2.82,25.08,12.67Z"/><path d="M401,502.84c0,6.57-4,11.68-10.4,13.68,8,2.19,12.59,8.67,12.59,16.06,0,13.13-12.22,16.69-23.17,16.69H353.85V485.42H380C390.78,485.42,401,490.71,401,502.84Zm-42.23,11.5h21.89c7.66,0,15.69-2.38,15.69-11.5,0-9.3-8.39-13.22-16.33-13.22H358.77Zm0,30.18H380c8,0,18.33-1.91,18.33-12-.09-10-9.12-13.5-17.69-13.5H358.77Z"/><path d="M465.75,549.27l-7-15.69H420.6l-6.93,15.69h-5.29L437,485.42h5.38L471,549.27ZM456.81,529l-17.14-38.85L422.52,529Z"/><path d="M488.09,523.73l-24.9-38.21v-.1h5.75L490.55,519l21.71-33.57H518v.1l-25,38.21v25.54h-4.92Z"/><path d="M454.31,312.21l8-6.7,8,6.7a32.78,32.78,0,0,0,42,0l5.62-4.7v-7.68l-9.4,7.85a26.86,26.86,0,0,1-34.48,0l-11.8-9.85-11.8,9.85a26.82,26.82,0,0,1-21.34,5.94A131.29,131.29,0,0,0,440,290.93a47,47,0,0,0,15.49-4.49,45.78,45.78,0,0,0,17.87-15.35l2.93-4.78s-28.14,2.06-51.72-22.24c.64,7.08.9,12.74.92,17.2,0,2.09,0,4-.08,5.79,0,.29,0,.56,0,.82a70,70,0,0,1-.87,7.51.65.65,0,0,1,0,.1c-4.26,5.39-11,9.05-20,10.95-.44.1-.89.18-1.34.27l-.37-.27c-7.19-5.26-8.7-15.5-8.72-15.61l-.61-4.51-4.14,1.89a24.29,24.29,0,0,0-6.93,5.34,120.57,120.57,0,0,0-39.92-51.8,12.84,12.84,0,0,0,3.71-11.4,109.71,109.71,0,0,0-2.37-11.4l-.28-1.1a14.05,14.05,0,0,1,0-6.79,12.28,12.28,0,0,0-15.25-14.73,19,19,0,0,0-4,1.65c-.4-1.07-.83-2.14-1.3-3.19-1.57-8.54-11.54-53.46-48.55-63.11l6.54-20.93-21.27-8-21.29,8,6.49,20.72c-40.12,9.3-47.61,55.68-48.61,63.59-.43,1-.84,2-1.22,3a19.39,19.39,0,0,0-4.23-1.75,12.28,12.28,0,0,0-15.25,14.73,14.05,14.05,0,0,1,0,6.79l-.26,1.09a109.84,109.84,0,0,0-2.38,11.41,12.85,12.85,0,0,0,3.81,11.5c-1.8,1.35-3.57,2.74-5.28,4.19a58.23,58.23,0,0,0-18.23-36.85C167.26,173.92,174.25,158.41,174,143A49.87,49.87,0,0,0,163.6,113.7c15-3.59,26.12-11,33.07-21.92,10.56-16.68,8.49-36.93,6.79-46,29.18,2.55,46.31-7.46,55.66-16.6A52.53,52.53,0,0,0,273,6.69h0L272,0c-.22,0-2.3.32-5.78,1.12-50.58,10.41-87.75,35.56-110.53,74.8-13.49,23.24-22,51.56-25.19,84.18-2.56,26-1.83,54.71,2.2,85.43,1.26,9.67,2.78,18.93,4.41,27.62a110,110,0,0,0-7.68,37.13,26.55,26.55,0,0,1-3.7-2.6l-11.8-9.85-11.79,9.85a26.86,26.86,0,0,1-34.48,0l-11.8-9.85L44,307.68a26.86,26.86,0,0,1-34.48,0l-9.54-8v7.68l5.76,4.81a32.78,32.78,0,0,0,42,0l8-6.7,8,6.7a32.77,32.77,0,0,0,42,0l8-6.69,8,6.69a32.68,32.68,0,0,0,7.49,4.71l0,.91a78.88,78.88,0,0,0-15,25.23l-.5-.42-11.79,9.85a26.87,26.87,0,0,1-34.48,0l-11.8-9.85L44,352.48a26.87,26.87,0,0,1-34.48,0l-9.54-8v7.69L5.76,357a32.78,32.78,0,0,0,42,0l8-6.7,8,6.7a32.77,32.77,0,0,0,42,0l6-5a62.87,62.87,0,0,0-1.27,12.52,64.39,64.39,0,0,0,4.76,24.16l-1.49-1.24-11.79,9.86a26.87,26.87,0,0,1-34.48,0l-11.8-9.86L44,397.28a26.87,26.87,0,0,1-34.48,0l-9.54-8V397l5.76,4.81a32.77,32.77,0,0,0,42,0l8-6.7,8,6.69a32.75,32.75,0,0,0,42,0l8-6.69,8,6.69c.26.22.52.43.79.62h0A92.42,92.42,0,0,0,134,416.17a127.32,127.32,0,0,0,30.6,22.18c.18.11.38.2.56.29l-1,.09-4,3.35a26.86,26.86,0,0,1-24.36,5.3q-1-.27-2-.63c-.57-.21-1.14-.43-1.7-.68a26.09,26.09,0,0,1-4.83-2.75h0c-.55-.39-1.08-.79-1.6-1.23l-11.8-9.85-11.79,9.85a26.87,26.87,0,0,1-34.48,0l-11.8-9.85L44,442.08a26.85,26.85,0,0,1-34.47,0l-9.54-8v7.68l5.76,4.81a32.74,32.74,0,0,0,42,0l8-6.69,8,6.69a32.75,32.75,0,0,0,42,0l8-6.69,5.91,4.93c-9.69,2.24-15.11,4.75-15.11,7.4,0,9.46,69.12,17.13,154.4,17.13s154.39-7.67,154.39-17.13c0-2.65-5.43-5.16-15.12-7.4l5.91-4.93,8,6.69a32.74,32.74,0,0,0,42,0l8-6.69,8,6.69a32.75,32.75,0,0,0,42,0l5.62-4.7v-7.67l-9.4,7.85a26.86,26.86,0,0,1-34.48,0l-11.8-9.85-11.8,9.85a26.85,26.85,0,0,1-34.47,0l-11.79-9.85-11.81,9.85c-.52.44-1,.84-1.59,1.23h0c-.58.42-1.17.81-1.78,1.17a27.9,27.9,0,0,1-2.81,1.48c-.55.24-1.1.47-1.66.68l-.52.19c-.5.17-1,.33-1.51.47A26.86,26.86,0,0,1,358,442.08l-4-3.34h0l.37-.19.11-.06a1.62,1.62,0,0,0,.29-.15c.2-.09.39-.2.58-.3h0c19.06-10.22,33.56-23.15,42.6-37.57l6.37-5.32,8,6.69a32.77,32.77,0,0,0,42,0l8-6.7,8,6.7a32.78,32.78,0,0,0,42,0l5.62-4.7v-7.68l-9.4,7.85a26.86,26.86,0,0,1-34.48,0l-11.8-9.86-11.8,9.86a26.86,26.86,0,0,1-34.47,0l-11.69-9.77a64.05,64.05,0,0,0,4.32-23,62.84,62.84,0,0,0-1-11.36l4.63,3.86a32.77,32.77,0,0,0,42,0l8-6.7,8,6.7a32.78,32.78,0,0,0,42,0l5.62-4.7v-7.68l-9.4,7.85a26.86,26.86,0,0,1-34.48,0l-11.8-9.85-11.8,9.85a26.86,26.86,0,0,1-34.47,0l-11-9.21h0q-.27-.78-.57-1.56,1.38-1,2.73-2.07c.52,0,1.14,0,1.88,0,6.31,0,19.9-1,28.77-8.8l5.12-4.51L436.26,325A77.23,77.23,0,0,1,424,321.5c.6-.85,1.19-1.7,1.76-2.54A32.75,32.75,0,0,0,454.31,312.21ZM240.07,17.53a137.35,137.35,0,0,1,25.2-9.22,48.64,48.64,0,0,1-10.88,16C243,35.43,227.11,40.43,207.07,39.23A147.08,147.08,0,0,1,240.07,17.53Zm-59.9,52.66a148.87,148.87,0,0,1,16.91-21.41c1.4,8.83,2.48,25.82-6.15,39.42-5.94,9.37-15.61,15.7-28.77,18.88A171.39,171.39,0,0,1,180.17,70.19ZM158.6,118.31a43.29,43.29,0,0,1,8.62,24.82c.23,13.09-5.69,26.49-17.6,39.92Q150.24,147.64,158.6,118.31Zm-4.92,126a409.88,409.88,0,0,1-4.05-49.16c14.42,14.27,15.32,32,15.29,36.74A122,122,0,0,0,153.68,244.3Z"/><path d="M165.19,438.64l-1,.09.46-.38C164.81,438.46,165,438.55,165.19,438.64Z"/><path d="M354,438.73h0Z"/><path d="M132.12,446.07a26.09,26.09,0,0,1-4.83-2.75h0A26.73,26.73,0,0,0,132.12,446.07Z"/><polygon points="357.98 442.08 353.97 438.74 353.96 438.73 353.97 438.73 357.98 442.08"/><path class="cls-1" d="M388.63,276.9a33,33,0,0,0,5.78,10.84c-3.12.17-5.76.12-7.53,0q-.83-3.43-1.91-6.9A39.57,39.57,0,0,1,388.63,276.9Z"/><path class="cls-2" d="M326.28,184.67a11.32,11.32,0,0,1,3.84-1.83,5.51,5.51,0,0,1,6.85,6.61,20.8,20.8,0,0,0,0,10l.28,1.12a104.35,104.35,0,0,1,2.24,10.7c.66,4.79-2.65,7.05-5.69,7.54s-6.89-.65-7.74-5.4c0-.17-.06-.36-.09-.54a57,57,0,0,0,.31-28.21Z"/><path class="cls-3" d="M383.2,313.56c0,1.67,0,3.4-.13,5.28a102,102,0,0,1-5.63,28.66A105.88,105.88,0,0,1,370,364l-15.26-8.67-29.85-17a94.12,94.12,0,0,0-2.71-35.84c-.12-.48-.26-1-.39-1.43s-.32-1.15-.5-1.74h0l-.07,0c-30-9.66-52.41-21.8-67.84-32.12a48.2,48.2,0,0,0,6.26.39c18.06,0,24.14-8.78,25.59-11.48,17-6.35,30.68-18.83,37.63-34.43v0a13.36,13.36,0,0,0,9.7,4,15.83,15.83,0,0,0,2.29-.18c.34-.05.67-.13,1-.21q4.5,3.21,8.66,6.79l0,0c15.62,13.44,27.32,30.54,33.47,49.18a99.73,99.73,0,0,1,2.84,10.41A102.28,102.28,0,0,1,383.2,313.56Z"/><path class="cls-4" d="M366.86,370c-.2.64-.43,1.27-.68,1.9a25.83,25.83,0,0,1-12.61,13.49,30.83,30.83,0,0,0,3.37-8.43l-6.65-1.23c0,.05-1.14,5.48-6.6,12.28a25.79,25.79,0,0,1-11.27-1.85l-.18-.08a46.86,46.86,0,0,0,12.58-13.77l-.61-.33-5.34-2.88a37,37,0,0,1-5.9,7.44,44,44,0,0,1-7.11,5.75,26,26,0,0,1-6.81-8.41c9.23-4.18,13.72-7.92,13.92-8.1l-4.35-5.16a59.73,59.73,0,0,1-11.83,6.86,26,26,0,0,1,6-22.55l29.74,16.92Z"/><path class="cls-1" d="M317.89,339.47l-.23,1.08a32.29,32.29,0,0,0-4.19,6,35.91,35.91,0,0,1-14-.39c-12.59-2.95-20.09-12.44-22.89-16.65,13.17-13.41,30.77-19.58,39.82-22C320.62,325.78,317.92,339.32,317.89,339.47Z"/><path class="cls-4" d="M271.63,233.58h-25A26.18,26.18,0,0,1,259,230.49h.26A26.23,26.23,0,0,1,271.63,233.58Z"/><path class="cls-4" d="M274.87,252.18a67.36,67.36,0,0,1-14.05,1.73l-3.38,0a67.22,67.22,0,0,1-14.1-1.95,6,6,0,0,1-4.46-6.74,16.48,16.48,0,0,1,3.37-7.9,22.54,22.54,0,0,0,33.78,0,16.5,16.5,0,0,1,3.4,8.17A6,6,0,0,1,274.87,252.18Z"/><path class="cls-4" d="M321.14,197.91v.24c0,22-14.18,41.15-34.69,50.2-.17-6.73-2.22-12.25-6.15-16.46a25.8,25.8,0,0,0-12.5-7.07c7.15-3.07,1.7-10.23,1.7-10.23,2,8.07-8.3,9-10.09,9.14a4.5,4.5,0,0,1-.52,0c-1.79-.11-12.08-1.07-10.09-9.14,0,0-5.45,7.16,1.7,10.23A25.69,25.69,0,0,0,238,231.89c-3.84,4.11-5.88,9.48-6.14,16-20-9.23-33.68-28-33.68-49.73v-.24a29.74,29.74,0,0,1,21.7-28.38c1-.28,2-.55,3-.8h0a130.92,130.92,0,0,1,36.77-4,131.69,131.69,0,0,1,39.79,4.8A29.75,29.75,0,0,1,321.14,197.91Z"/><path class="cls-5" d="M179.58,211.28a107.49,107.49,0,0,1,2.25-10.72l.27-1.1a20.8,20.8,0,0,0,0-10,5.51,5.51,0,0,1,6.85-6.61,11.5,11.5,0,0,1,4,2,57.71,57.71,0,0,0-1.58,13.34,57,57,0,0,0,1.81,14.25h0c-.06.35-.11.69-.17,1-.86,4.75-4.71,5.87-7.74,5.39S178.92,216.07,179.58,211.28Z"/><path class="cls-3" d="M307.4,353.79l1.5,0a198,198,0,0,1-49.25,6.09c-5.14,0-10.25-.2-15.3-.57a196.43,196.43,0,0,1-22.27-2.92h0Q214.76,355,207.69,353a33.52,33.52,0,0,0-1.82-5.74,32.74,32.74,0,0,0-4.51-7.6,88.07,88.07,0,0,1,3-37.87l-6.47-1.94a97.65,97.65,0,0,0-4.05,32.9,33.85,33.85,0,0,0-5.78-3.05,32.56,32.56,0,0,0-16.26-2.15q-5-17.59-8.91-34.32-4.74-20.38-7.79-39.5a116.46,116.46,0,0,1,28.28-28.45c.28.06.55.13.83.17a14.64,14.64,0,0,0,2.29.19,13.32,13.32,0,0,0,9.85-4.15,64.39,64.39,0,0,0,25.43,28.63c3.2,3.54,29.93,31.72,87.62,52.31-10.89,3.51-27.14,10.65-39.51,24.29l-1.6,1.75,1.11,2.1C269.55,330.87,282,353.79,307.4,353.79Z"/><path class="cls-4" d="M180.06,381.19a60,60,0,0,0,12.34-1.31,25.88,25.88,0,0,1-41.59-13l.1-.06-.22-.37A25.9,25.9,0,0,1,185.52,336a26.36,26.36,0,0,1,2.93,1.41c-2.29,2.77-7.54,7.41-18.44,10.35l1.76,6.52c12.68-3.42,19.09-9.07,22.11-12.83a25.92,25.92,0,0,1,5.76,8.47l.41,1a44.58,44.58,0,0,1-26.68,10.26l.33,6.76a51.61,51.61,0,0,0,27.94-9.64,25.71,25.71,0,0,1-1.86,11.44c-.13.33-.28.64-.42,1a52.87,52.87,0,0,1-24.9,3.37l-.77,6.72A54.12,54.12,0,0,0,180.06,381.19Z"/><path class="cls-1" d="M161.5,79.29a139.39,139.39,0,0,1,39.18-43.45c-1.19,1.08-2.39,2.2-3.58,3.34a2.79,2.79,0,0,0-.54.49.7.7,0,0,1-.06.09,155,155,0,0,0-21.91,26.6,178.26,178.26,0,0,0-20.28,43.21c-.06.17-.51,1.59-.57,1.79a243.36,243.36,0,0,0-10,54.67c-3.39,46.43,3.84,101.29,21.45,163.09a33,33,0,0,0-6.45,3,520.18,520.18,0,0,1-19.42-87.64C133.16,197.19,132,130.11,161.5,79.29Z"/><path class="cls-6" d="M139.73,286.43a498.51,498.51,0,0,0,13.35,50.09,32.73,32.73,0,0,0-9.19,16.34,102.46,102.46,0,0,1-7.66-34c-.09-1.9-.13-3.63-.13-5.3A102.77,102.77,0,0,1,139.73,286.43Z"/><path class="cls-3" d="M189.24,441.77a153,153,0,0,1-34.38-17.09c-23.78-16.12-37.48-37.4-37.48-60.19,0-12.72,4.43-25.33,12.86-36.87a110.33,110.33,0,0,0,14.18,41.54,32.75,32.75,0,0,0,6.67,12.25h0a32.4,32.4,0,0,0,12.38,8.87,32.77,32.77,0,0,0,8.13,2.13Z"/><path class="cls-1" d="M211.17,460.25h-8l-24.35-67.72A33.28,33.28,0,0,0,186,391Z"/><path class="cls-3" d="M303.78,449.08a220.25,220.25,0,0,1-44.13,4.41c-7.4,0-14.73-.36-21.95-1.07a212.72,212.72,0,0,1-23.55-3.62l-22-60.57a32.62,32.62,0,0,0,16.25-28c3.66.95,7.35,1.78,11.09,2.52l.44.66c21.7,32.8,54.23,47.59,78.47,54.25Z"/><path class="cls-4" d="M338.74,438.39a177,177,0,0,1-20.89,7.27q-3.68,1-7.46,1.94l-5-29.22v0l-.11-.72c5.92-.95,18.71-2,21.35,6.24C328.84,430.73,333.11,435.84,338.74,438.39Z"/><path class="cls-3" d="M401.92,364.49c0,26.1-18.32,50.79-50.27,67.78a11.93,11.93,0,0,1-9.49.23c-3-1.15-6.91-3.93-9.06-10.68-4.93-15.39-26.83-11.41-31.63-10.34h0c-22-5.88-51.7-18.79-72.52-47.1a209.37,209.37,0,0,0,30.74,2.24c2.09,0,4.17,0,6.24-.1a203.56,203.56,0,0,0,43.63-5.94,32.69,32.69,0,0,0,62.93,13.89c.39-1,.72-1.94,1-2.93l.69-1.16a112.41,112.41,0,0,0,9-18.86,57.47,57.47,0,0,0,15.44-6.08A57.28,57.28,0,0,1,401.92,364.49Z"/><path class="cls-1" d="M427,329.66a43.51,43.51,0,0,1-12.07,2.89c1.67-1.74,3.3-3.59,4.89-5.52A51.28,51.28,0,0,0,427,329.66Z"/><path class="cls-1" d="M464,272a40.41,40.41,0,0,1-26.69,12.39l-2.31.16v0l-.68,2.18a123.12,123.12,0,0,1-18,33.86,81.52,81.52,0,0,1-11.46,12.2l-.94.78a56.84,56.84,0,0,1-5.44,4,52.46,52.46,0,0,1-12.75,6.19,109.47,109.47,0,0,0,4.13-24.63c.1-2,.14-3.83.14-5.62a110.38,110.38,0,0,0-1.19-16h0c-.13-1-.29-1.94-.46-2.9a80,80,0,0,0,14.71-1c12.44-2.06,21.64-7,27.33-14.67l.43-.59.17-.71a77.67,77.67,0,0,0,1.2-19.21A66,66,0,0,0,464,272Z"/><path d="M425.35,267.88a43.43,43.43,0,0,1-.86,7.51A71.11,71.11,0,0,0,425.35,267.88Z"/><path class="cls-7" d="M245.64,94.63l14-4.36v19.58a44.25,44.25,0,0,0-8.94,1.4Z"/><path class="cls-5" d="M231.84,247.88c-20-9.23-33.68-28-33.68-49.73v-.24a29.74,29.74,0,0,1,21.7-28.38c1-.28,2-.55,3-.8h0s-14.22,13-10.63,35.14S223.75,237.8,231.84,247.88Z"/><path class="cls-2" d="M287.46,247.88c20-9.23,33.68-28,33.68-49.73v-.24a29.75,29.75,0,0,0-21.7-28.38c-1-.28-2-.55-3-.8h0s14.23,13,10.64,35.14S295.54,237.8,287.46,247.88Z"/><path class="cls-5" d="M176,385.92A25.55,25.55,0,0,1,166,384a25.89,25.89,0,0,1-15.21-17.11l.1-.06-.22-.37a25.9,25.9,0,0,1,25.12-32.39H176a27.48,27.48,0,0,0,0,51.81Z"/><path class="cls-6" d="M154.86,424.68c-23.78-16.12-37.48-37.4-37.48-60.19,0-12.72,4.43-25.33,12.86-36.87a110.33,110.33,0,0,0,14.18,41.54,32.75,32.75,0,0,0,6.67,12.25h0S138.74,403,154.86,424.68Z"/><path class="cls-6" d="M221.79,250.16s-40.11-5.67-53.56,26.74a107.74,107.74,0,0,0-5.33,16.37q-4.74-20.38-7.79-39.5a116.46,116.46,0,0,1,28.28-28.45c.28.06.55.13.83.17a14.64,14.64,0,0,0,2.29.19,13.32,13.32,0,0,0,9.85-4.15A64.39,64.39,0,0,0,221.79,250.16Z"/><path class="cls-8" d="M244.35,359.28a196.43,196.43,0,0,1-22.27-2.92h0Q214.76,355,207.69,353a33.52,33.52,0,0,0-1.82-5.74,32.74,32.74,0,0,0-4.51-7.6,88.07,88.07,0,0,1,3-37.87S209.7,346.22,244.35,359.28Z"/><path class="cls-8" d="M300.78,284.59c6.27,5.51,13.66,11.28,20.45,14.76-30-9.66-52.41-21.8-67.84-32.12a48.2,48.2,0,0,0,6.26.39c18.06,0,24.14-8.78,25.59-11.48,17-6.35,30.68-18.83,37.63-34.43-.25.9-6.63,23.78-22.6,38.64A16.38,16.38,0,0,0,300.78,284.59Z"/><path class="cls-9" d="M321.3,299.37h0Z"/><path class="cls-8" d="M301.43,411.47c-22-5.88-51.7-18.79-72.52-47.1a209.37,209.37,0,0,0,30.74,2.24c2.09,0,4.17,0,6.24-.1C266.38,373.84,270.31,403,301.43,411.47Z"/><path class="cls-2" d="M333,376.56a44,44,0,0,1-7.11,5.75,26,26,0,0,1-6.81-8.41A27.19,27.19,0,0,0,333,376.56Z"/><path class="cls-2" d="M352.53,361.87,366.86,370c-.2.64-.43,1.27-.68,1.9a25.83,25.83,0,0,1-12.61,13.49,30.83,30.83,0,0,0,3.37-8.43l-6.65-1.23c0,.05-1.14,5.48-6.6,12.28a25.79,25.79,0,0,1-11.27-1.85l-.18-.08a46.86,46.86,0,0,0,12.58-13.77l-.61-.33A30.35,30.35,0,0,0,352.53,361.87Z"/><path class="cls-8" d="M383.2,313.55c0,1.68,0,3.41-.14,5.29a102.06,102.06,0,0,1-5.63,28.66A105,105,0,0,1,370,364l-15.25-8.67c32.3-73-9.47-122.13-10.23-123.28,15.62,13.45,27.33,30.55,33.48,49.19a103.06,103.06,0,0,1,5.19,32.27Z"/><path class="cls-10" d="M316.45,307.48c4.17,18.3,1.47,31.84,1.44,32l-.23,1.08a32.29,32.29,0,0,0-4.19,6,35.91,35.91,0,0,1-14-.39C318.48,344.07,316.45,307.48,316.45,307.48Z"/><path class="cls-10" d="M435,284.57l-.68,2.18a123.12,123.12,0,0,1-18,33.86,81.52,81.52,0,0,1-11.46,12.2l-.94.78a56.84,56.84,0,0,1-5.44,4,52.46,52.46,0,0,1-12.75,6.19,109.47,109.47,0,0,0,4.13-24.63c.1-2,.14-3.83.14-5.62a110.38,110.38,0,0,0-1.19-16c1,3.34,4,9.27,13.15,16.45C416,325,434.44,285.65,435,284.57Z"/><circle cx="299.97" cy="329.63" r="4.47"/><path class="cls-11" d="M395.91,308.24a.81.81,0,0,1-.51-.18.83.83,0,0,1-.15-1.18,5.32,5.32,0,0,0,1.36-4.26,5.88,5.88,0,0,0-2.62-3.43.84.84,0,0,1-.32-1.15.85.85,0,0,1,1.15-.32,7.5,7.5,0,0,1,3.44,4.57,6.87,6.87,0,0,1-1.68,5.63A.85.85,0,0,1,395.91,308.24Z"/><path class="cls-11" d="M397.47,321.65a.86.86,0,0,1-.52-.18.84.84,0,0,1-.14-1.18,5.31,5.31,0,0,0,1.36-4.25,5.83,5.83,0,0,0-2.63-3.44.85.85,0,0,1,.84-1.47,7.54,7.54,0,0,1,3.44,4.57,6.84,6.84,0,0,1-1.68,5.62A.84.84,0,0,1,397.47,321.65Z"/><path class="cls-11" d="M405.92,309.41a.79.79,0,0,1-.52-.18.83.83,0,0,1-.15-1.18,5.29,5.29,0,0,0,1.36-4.26,5.88,5.88,0,0,0-2.62-3.43.84.84,0,1,1,.84-1.46,7.51,7.51,0,0,1,3.44,4.56,6.91,6.91,0,0,1-1.69,5.63A.83.83,0,0,1,405.92,309.41Z"/><path class="cls-11" d="M408.26,324.5a.8.8,0,0,1-.52-.18.84.84,0,0,1-.14-1.18A5.28,5.28,0,0,0,409,318.9a6,6,0,0,0-2.62-3.45.84.84,0,0,1-.32-1.15.85.85,0,0,1,1.15-.32,7.54,7.54,0,0,1,3.44,4.57,6.87,6.87,0,0,1-1.68,5.63A.86.86,0,0,1,408.26,324.5Z"/><path class="cls-11" d="M414.87,312.71a.84.84,0,0,1-.52-.18.83.83,0,0,1-.15-1.18,5.3,5.3,0,0,0,1.36-4.25,5.87,5.87,0,0,0-2.62-3.44.85.85,0,0,1,.84-1.47,7.58,7.58,0,0,1,3.44,4.57,6.94,6.94,0,0,1-1.68,5.63A.86.86,0,0,1,414.87,312.71Z"/><path class="cls-11" d="M399,335.06a.85.85,0,0,1-.67-1.37,5.28,5.28,0,0,0,1.36-4.24,5.87,5.87,0,0,0-2.62-3.44.86.86,0,0,1-.31-1.16.84.84,0,0,1,1.15-.31,7.58,7.58,0,0,1,3.44,4.57,6.91,6.91,0,0,1-1.68,5.62A.87.87,0,0,1,399,335.06Z"/><path class="cls-7" d="M204.85,168.73s5.29-41.14,40.79-51.91c0,0-21.13,12-25.57,44.79A63.46,63.46,0,0,0,204.85,168.73Z"/><path class="cls-2" d="M317.85,445.66q-3.68,1-7.46,1.94l-5-29.22Z"/><path class="cls-8" d="M237.7,452.42a212.72,212.72,0,0,1-23.55-3.62l-22-60.57a32.62,32.62,0,0,0,16.25-28,29.81,29.81,0,0,1,1,18.25,42,42,0,0,0,4,32.57Z"/><circle class="cls-12" cx="291.75" cy="218.83" r="7.25"/><circle class="cls-12" cx="226.55" cy="218.83" r="7.25"/><path d="M298,200s-6.44-7.82-21.41-7.8a2,2,0,0,0-2,2h0a2,2,0,0,0,1.91,1.95C280.82,196.24,291.5,196.8,298,200Z"/><path d="M283.73,185.23a31.3,31.3,0,0,1,14.75,8.68s.54-9.39-12.91-14.39a3,3,0,0,0-4.09,3h0A3,3,0,0,0,283.73,185.23Z"/><path d="M220.35,200s6.43-7.82,21.4-7.8a2,2,0,0,1,2,2h0a2,2,0,0,1-1.91,1.95C237.48,196.24,226.8,196.8,220.35,200Z"/><path d="M234.57,185.23a31.3,31.3,0,0,0-14.75,8.68s-.54-9.39,12.91-14.39a3,3,0,0,1,4.09,3h0A3,3,0,0,1,234.57,185.23Z"/><path d="M259.15,250.74a23.17,23.17,0,0,1-10-2.23,1,1,0,1,1,.85-1.8,21.64,21.64,0,0,0,18.3,0,1,1,0,1,1,.85,1.8A23.17,23.17,0,0,1,259.15,250.74Z"/></g></g></svg>