<?xml version="1.0" encoding="utf-8"?>
<!-- Generator: Adobe Illustrator 25.2.0, SVG Export Plug-In . SVG Version: 6.00 Build 0)  -->
<svg version="1.1" xmlns="http://www.w3.org/2000/svg" xmlns:xlink="http://www.w3.org/1999/xlink" x="0px" y="0px"
	 viewBox="0 0 572 682" style="enable-background:new 0 0 572 682;" xml:space="preserve">
<style type="text/css">
	.st0{fill:#0071B6;}
	.st1{fill:#1A1A1A;}
	.st2{fill:#FFFFFF;}
	.st3{fill:#D32F2F;}
	.st4{fill:#CDAB89;}
	.st5{fill:#FF9522;}
	.st6{fill:#FCCFAA;}
	.st7{fill:#FFE9D9;}
	.st8{fill:#F6BC01;}
	.st9{fill:#F17400;}
	.st10{fill:#C97F1E;}
	.st11{fill:#9A0007;}
	.st12{fill:#2E0000;}
	.st13{fill:#FFB2AE;}
</style>
<symbol  id="ะตัะต_2" viewBox="-23.7 -23.7 51.8 47.4">
	<circle class="st0" cx="0" cy="0" r="23.7"/>
	<circle class="st1" cx="0" cy="0" r="13.8"/>
	<circle class="st2" cx="18.6" cy="-7.6" r="9.5"/>
</symbol>
<g id="Logo_x5F_2">
	<g>
		<path d="M478.9,333.4c0.8,9.2,1.2,16.5,1.2,22.3c0.1,2.7,0,5.2-0.1,7.5c0,0.4,0,0.7-0.1,1.1c-0.3,4.6-0.8,8.1-1.1,9.7
			c0,0.1,0,0.1,0,0.1c-5.5,7-14.2,11.7-25.9,14.2c-0.6,0.1-1.2,0.2-1.7,0.3c-0.2-0.1-0.3-0.2-0.5-0.3c-9.3-6.8-11.3-20.1-11.3-20.2
			l-0.8-5.8l-5.4,2.4c-3.3,1.5-6.5,4.3-9,6.9c-10.2-26-28.3-49.5-51.7-67.1c3.5-3.4,5.7-8.5,4.8-14.8c-0.7-5.2-2-10.3-3.1-14.8
			l-0.4-1.4c-0.7-2.9-0.7-5.9,0-8.8c1.4-5.5-0.3-11.2-4.4-15.2c-4.1-4-9.8-5.4-15.4-3.9c-2.1,0.6-3.8,1.3-5.2,2.1
			c-0.5-1.4-1.1-2.8-1.7-4.1c-2-11.1-15-69.3-62.9-81.8l8.5-27.1l-27.6-10.3l-27.6,10.3l8.4,26.8c-52,12-61.7,72.1-63,82.4
			c-0.6,1.3-1.1,2.6-1.6,3.9c-1.5-0.8-3.3-1.6-5.5-2.3c-5.5-1.6-11.2-0.1-15.4,3.9c-4.1,4-5.8,9.7-4.4,15.2c0.7,2.9,0.7,5.9,0,8.8
			l-0.3,1.4c-1.1,4.5-2.4,9.5-3.1,14.8c-0.9,6.4,1.3,11.5,4.9,14.9c-2.3,1.7-4.6,3.5-6.8,5.4c-1.2-11.6-6-31.3-23.6-47.7
			c18.2-19.8,27.3-39.9,26.9-59.8c-0.3-17.7-8-30.8-13.4-38c19.4-4.7,33.8-14.2,42.8-28.4c13.7-21.6,11-47.8,8.8-59.6
			c37.8,3.3,60-9.7,72.1-21.5c13.8-13.4,17.7-28.1,18-29.1c0,0,0,0,0,0l-1.4-8.7c-0.3,0-3,0.4-7.5,1.5
			c-65.5,13.5-113.7,46.1-143.2,96.9c-17.5,30.1-28.5,66.8-32.6,109.1c-3.3,33.6-2.4,70.9,2.9,110.7c1.6,12.5,3.6,24.5,5.7,35.8
			c-2.2,5.6-4.1,11.4-5.6,17.2c-2.6,10.1-4.1,20.4-4.4,30.9c0,1.4-0.1,2.8-0.1,4.2c0,1.4,0,2.8,0.1,4.3c0,0.4,0,0.8,0,1.2
			c-8.9,10.2-15.4,21.3-19.5,32.7c-1.4,3.8-2.4,7.7-3.2,11.6c-1.1,5.4-1.6,10.8-1.6,16.2c0,10.7,2.1,21.2,6.2,31.3v0
			c2.5,6.1,5.6,12,9.5,17.8v0c4.1,6.2,9,12.1,14.7,17.8c10.9,10.9,24.3,20.6,39.6,28.7c0.2,0.1,0.5,0.3,0.8,0.4c0,0,0,0,0,0
			c-47.7,4.1-78.4,10.4-78.4,17.6c0,12.3,89.5,22.2,200,22.2c110.5,0,200-9.9,200-22.2c0-7.1-30.2-13.5-77.2-17.5c0,0,0,0,0,0h0
			c0,0,0,0,0.1,0c0.2-0.1,0.3-0.2,0.5-0.2c0.1,0,0.1-0.1,0.1-0.1c0.1,0,0.2-0.1,0.4-0.2c0.3-0.1,0.5-0.3,0.8-0.4l0,0
			c24.7-13.2,43.5-30,55.2-48.7c3.4-5.4,6.2-11,8.4-16.7c3.7-9.6,5.6-19.6,5.6-29.8c0-4.9-0.5-9.8-1.3-14.7
			c-0.8-4.3-1.9-8.6-3.4-12.8v0c-0.2-0.7-0.5-1.3-0.7-2c1.2-0.9,2.4-1.7,3.5-2.7c0.7,0,1.5,0.1,2.4,0.1c8.2,0,25.8-1.3,37.3-11.4
			l6.6-5.8l-8.7-1.7c-4.2-0.9-11.1-2.6-15.8-4.6c0.8-1.1,1.5-2.2,2.3-3.3c1.6-2.3,3-4.6,4.4-6.9c7.7-12.8,12.2-24.3,14-29.4
			c7.8-0.9,14.5-3.1,20.1-5.8c15.3-7.5,22.7-19.2,23.2-19.9l3.8-6.2C545.9,362.2,509.5,364.9,478.9,333.4z M239.9,39.9
			c13.3-6.4,25-10,32.6-11.9c-2,4.8-6.2,13-14.1,20.7c-14.7,14.4-35.3,20.9-61.3,19.3C212.5,54.7,227.7,45.8,239.9,39.9z
			 M162.3,108.1c6.9-10.5,14.3-19.7,21.9-27.7c1.8,11.4,3.2,33.5-8,51.1c-7.7,12.1-20.2,20.3-37.3,24.5
			C145.1,138.6,152.9,122.7,162.3,108.1z M134.4,170.5c4.6,6.2,10.9,17.4,11.2,32.2c0.3,17-7.4,34.3-22.8,51.7
			C123.3,223.7,127.2,195.8,134.4,170.5z M128,333.7c-3.1-22.3-4.9-43.5-5.2-63.7c18.7,18.5,19.8,41.4,19.8,47.6
			C137.3,322.6,132.5,328,128,333.7z"/>
		<g>
			<g>
				<g>
					<g>
						<g>
							<g>
								<path d="M142.9,585.5c-0.4,0-0.9,0.1-1.3,0.1l0.6-0.5C142.4,585.2,142.7,585.3,142.9,585.5z"/>
								<path d="M387.5,585.6C387.5,585.6,387.4,585.6,387.5,585.6C387.4,585.6,387.4,585.6,387.5,585.6L387.5,585.6z"/>
							</g>
						</g>
						<g>
							<g>
								<path d="M100.1,595.1c-2.2-0.9-4.3-2.1-6.3-3.6c0,0,0,0,0,0h0C95.8,592.9,97.9,594.1,100.1,595.1z"/>
								<polygon points="392.7,589.9 387.5,585.6 387.5,585.6 387.5,585.6 								"/>
							</g>
							<g>
								<path class="st3" d="M432.4,375.9c1.3,4.1,3.6,9.4,7.5,14c-4,0.2-7.5,0.2-9.7,0c-0.7-3-1.5-5.9-2.5-8.9
									C428.9,379.6,430.6,377.6,432.4,375.9z"/>
							</g>
							<g>
								<path class="st4" d="M351.6,256.4c1-0.8,2.6-1.7,5-2.4c2.5-0.7,5,0,6.9,1.7c1.9,1.8,2.6,4.3,2,6.8c-1.1,4.3-1.1,8.7,0,13
									l0.4,1.4c1.1,4.5,2.2,9.1,2.9,13.9c0.9,6.2-3.4,9.1-7.4,9.8c-3.9,0.6-8.9-0.8-10-7c0-0.2-0.1-0.5-0.1-0.7
									c1.6-6.1,2.5-12.5,2.5-19.1C353.7,267.9,353,262.1,351.6,256.4z"/>
							</g>
							<g>
								<path class="st5" d="M425.4,423.4c0,2.2-0.1,4.4-0.2,6.8c-0.6,12.6-3.1,25.1-7.3,37.1c-2.6,7.4-5.8,14.5-9.6,21.4
									l-19.8-11.2l-38.7-22c0.9-7,2.3-24.5-3.5-46.4c-0.2-0.6-0.3-1.3-0.5-1.9c-0.2-0.7-0.4-1.5-0.6-2.3l0,0v0l0,0
									c0,0-0.1,0-0.1,0c-38.9-12.5-67.9-28.2-87.9-41.6c2.5,0.3,5.2,0.5,8.1,0.5c23.4,0,31.3-11.4,33.2-14.9
									c22.1-8.2,39.7-24.4,48.8-44.6c0,0,0,0,0,0c3.3,3.5,8,5.2,12.6,5.2c1,0,2-0.1,3-0.2c0.4-0.1,0.9-0.2,1.3-0.3
									c3.9,2.8,7.6,5.7,11.2,8.8c0,0,0,0,0,0c20.2,17.4,35.4,39.6,43.4,63.7c1.5,4.5,2.7,9.1,3.7,13.5
									C424.3,404.4,425.4,413.9,425.4,423.4z"/>
							</g>
							<g>
								<path class="st6" d="M404.2,496.6c-0.3,0.8-0.6,1.6-0.9,2.5c-3.2,7.9-9.2,14-16.3,17.5c3.5-6.3,4.3-10.7,4.4-10.9l-8.6-1.6
									c0,0.1-1.5,7.1-8.6,15.9c-4.8,0.3-9.8-0.5-14.6-2.4c-0.1,0-0.2-0.1-0.2-0.1c11-8.2,16.1-17.4,16.3-17.8l-0.8-0.4l-6.9-3.7
									c0,0.1-2.5,4.5-7.6,9.6c-2.4,2.4-5.5,5.1-9.2,7.5c-3.7-3-6.7-6.7-8.8-10.9c12-5.4,17.8-10.3,18-10.5l-5.6-6.7
									c-0.1,0-5,4.1-15.3,8.9c-0.9-4.5-1-9.2,0-13.9c0.4-1.9,1-3.8,1.7-5.6c1.4-3.6,3.5-6.8,6-9.7l38.5,21.9L404.2,496.6z"/>
							</g>
							<g>
								<path class="st3" d="M340.8,457l-0.3,1.4c-2.1,2.4-3.9,5-5.4,7.7c-6.7,1.1-12.7,0.7-18.1-0.5c-16.3-3.8-26-16.1-29.7-21.6
									c17.1-17.4,39.9-25.4,51.6-28.5C344.3,439.2,340.8,456.8,340.8,457z"/>
							</g>
							<g>
								<path class="st6" d="M280.8,319.8h-32.4c7.3-4.2,15.9-4,16-4h0.3C264.9,315.8,273.5,315.6,280.8,319.8z"/>
								<path class="st6" d="M285,343.9c-5.8,1.4-11.9,2.1-18.2,2.2l-4.4,0c-6.3-0.2-12.4-1.1-18.3-2.5c-3.9-1-6.4-4.8-5.8-8.7
									c0.7-4,2.1-7.5,4.4-10.2c5.4,6.1,13.2,9.9,21.9,9.9c8.7,0,16.5-3.8,21.9-9.9c2.3,2.9,3.8,6.4,4.4,10.6
									C291.5,339.2,289,343,285,343.9z"/>
							</g>
							<g>
								<path class="st6" d="M345,273.6v0.3c0,28.6-18.4,53.3-44.9,65c-0.2-8.7-2.9-15.9-8-21.3c-4.8-5.1-10.9-7.8-16.2-9.2
									c9.3-4,2.2-13.3,2.2-13.3c2.6,10.5-10.8,11.7-13.1,11.8c-0.2,0-0.5,0-0.7,0c-2.3-0.1-15.7-1.4-13.1-11.8
									c0,0-7.1,9.3,2.2,13.3c-5.3,1.3-11.4,4-16.2,9.2c-5,5.3-7.6,12.3-8,20.7c-25.9-12-43.6-36.3-43.6-64.4v-0.3
									c0.1-17.1,11.6-32.1,28.1-36.8c1.3-0.4,2.6-0.7,3.9-1h0c26-6.6,47.6-5.2,47.6-5.2s23.8-1.6,51.5,6.2
									C333.3,241.4,344.9,256.5,345,273.6z"/>
							</g>
							<g>
								<path class="st7" d="M161.6,290.9c0.7-4.8,1.8-9.4,2.9-13.9l0.4-1.4c1.1-4.3,1.1-8.7,0-13c-0.6-2.5,0.1-5,2-6.8
									c1.8-1.8,4.4-2.4,6.9-1.7c2.5,0.7,4.2,1.8,5.2,2.6c-1.3,5.6-2,11.4-2,17.3c0,6.4,0.8,12.5,2.3,18.5h0
									c-0.1,0.4-0.1,0.9-0.2,1.3c-1.1,6.2-6.1,7.6-10,7C165,300,160.7,297.1,161.6,290.9z"/>
							</g>
							<g>
								<path class="st5" d="M327.2,475.5c0.6,0,1.3,0,1.9,0c-20.4,5.2-41.8,7.9-63.8,7.9c-6.7,0-13.3-0.3-19.8-0.7
									c-9.8-0.7-19.4-2-28.9-3.8c0,0,0,0,0,0v0c-6.3-1.2-12.5-2.6-18.6-4.3c-0.6-2.5-1.3-5-2.4-7.4c-1.5-3.6-3.5-6.9-5.8-9.9
									c-0.8-4.6-3.4-24.7,3.9-49.1l-8.4-2.5c-5.2,17.5-5.8,32.7-5.2,42.6c-2.3-1.5-4.8-2.9-7.5-4c-6.9-2.8-14.1-3.6-21.1-2.8
									c-4.3-15.2-8.2-30-11.5-44.5c-4.1-17.6-7.5-34.7-10.1-51.2c9.8-14.1,22.1-26.5,36.6-36.8c0.4,0.1,0.7,0.2,1.1,0.2
									c1,0.2,2,0.2,3,0.2c4.7,0,9.4-1.8,12.8-5.4c6.7,15.2,18.3,28.1,32.9,37.1c4.1,4.6,38.8,41.1,113.5,67.8
									c-14.1,4.5-35.1,13.8-51.2,31.5l-2.1,2.3l1.4,2.7C278.1,445.8,294.2,475.5,327.2,475.5z"/>
							</g>
							<g>
								<path class="st6" d="M162.2,511c6,0,11.4-0.7,16-1.7c-9.2,7.7-22.3,10.2-34.2,5.4c-10-4.1-17-12.5-19.7-22.2l0.1-0.1
									c-0.1-0.2-0.2-0.3-0.3-0.5c-1.8-6.7-1.4-14.1,1.4-21c5.3-13,17.9-20.9,31.2-20.9c4.2,0,8.5,0.8,12.6,2.5
									c1.3,0.5,2.6,1.1,3.8,1.8c-3,3.6-9.8,9.6-23.9,13.4l2.3,8.5c16.4-4.4,24.7-11.8,28.6-16.6c3.2,3.1,5.7,6.8,7.5,11
									c0.2,0.4,0.4,0.9,0.5,1.3c-4.3,3.7-16.2,12.4-34.6,13.3l0.4,8.7c17.2-0.8,29.4-7.6,36.2-12.5c0.3,5-0.5,10-2.4,14.8
									c-0.2,0.4-0.4,0.8-0.5,1.2c-4.2,1.7-17,6.1-32.3,4.4l-1,8.7C156.8,510.9,159.5,511,162.2,511z"/>
							</g>
							<g>
								<path class="st3" d="M138.1,119.9c13.1-22.5,30.1-41.3,50.8-56.3c-1.5,1.4-3.1,2.8-4.6,4.3c-0.3,0.2-0.5,0.4-0.7,0.6
									c0,0-0.1,0.1-0.1,0.1c-9.9,9.6-19.6,20.9-28.4,34.5c-10.9,16.8-19.7,35.5-26.3,56c-0.1,0.2-0.7,2.1-0.7,2.3
									c-6.7,21.7-11.1,45.3-12.9,70.8c-4.4,60.2,5,131.2,27.8,211.3c-2.9,1-5.7,2.3-8.4,3.9c-4.8-15.1-18.1-59.4-25.2-113.5
									C101.4,272.6,99.9,185.8,138.1,119.9z"/>
							</g>
							<g>
								<path class="st8" d="M109.9,388.3c7.1,32.9,14.7,57,17.3,64.9c-4.1,4-7.5,8.9-9.8,14.5c-0.9,2.2-1.6,4.4-2.1,6.7
									c-5.8-14.1-9.1-28.8-9.9-44.1c-0.1-2.5-0.2-4.7-0.2-6.9C105.2,411.5,106.8,399.7,109.9,388.3z"/>
							</g>
							<g>
								<path class="st5" d="M174.1,589.5c-16.9-6-31.8-13.5-44.5-22.1c-30.8-20.9-48.6-48.5-48.6-78c0-16.5,5.7-32.8,16.7-47.8
									c2.4,18.9,8.6,36.9,18.4,53.8c1.7,5.8,4.6,11.2,8.6,15.9v0c4.2,4.9,9.6,8.9,16,11.5c3.5,1.4,7,2.3,10.5,2.8L174.1,589.5z"/>
							</g>
							<g>
								<path class="st3" d="M202.5,613.4h-10.4l-31.5-87.7c3.2-0.3,6.3-1,9.3-2L202.5,613.4z"/>
							</g>
							<g>
								<path class="st5" d="M322.5,599c-18.4,3.8-37.6,5.7-57.2,5.7c-9.6,0-19.1-0.5-28.4-1.4c-10.4-1-20.6-2.6-30.5-4.7
									l-28.4-78.5c7.8-4.5,14.3-11.6,17.9-20.6c2-5.1,3.1-10.4,3.1-15.7c4.7,1.2,9.5,2.3,14.4,3.3c0.2,0.3,0.4,0.6,0.6,0.9
									c28.1,42.5,70.3,61.7,101.7,70.3L322.5,599z"/>
							</g>
							<g>
								<path class="st6" d="M367.8,585.1c-8.6,3.6-17.6,6.8-27.1,9.4c-3.2,0.9-6.4,1.7-9.7,2.5l-6.4-37.9l0,0l-0.2-0.9
									c7.7-1.2,24.2-2.6,27.7,8.1C354.9,575.2,360.5,581.8,367.8,585.1z"/>
							</g>
							<g>
								<path class="st5" d="M449.6,489.4c0,33.8-23.7,65.8-65.1,87.8c-3.4,1.8-8.2,1.9-12.3,0.3c-3.8-1.5-9-5.1-11.7-13.8
									c-6.4-19.9-34.8-14.8-41-13.4c0,0,0,0-0.1,0c-28.5-7.6-67-24.3-93.9-61c13,1.9,26.3,2.9,39.8,2.9c2.7,0,5.4,0,8.1-0.1
									c19.4-0.6,38.4-3.2,56.5-7.7c-0.9,17.7,9.4,34.4,26.4,41.3c5.2,2.1,10.6,3.1,15.9,3.1c16.7,0,32.6-10,39.3-26.4
									c0.5-1.2,0.9-2.5,1.3-3.8l0.9-1.5c4.7-7.8,8.6-16,11.7-24.4c6.9-1.6,13.6-4.2,20-7.9C448.2,472.8,449.6,481.1,449.6,489.4z"
									/>
							</g>
							<g>
								<path class="st3" d="M482.1,444.3c-5.2,2.2-10.8,3.2-15.6,3.7c2.2-2.2,4.3-4.6,6.3-7.2C475.6,442.2,479,443.3,482.1,444.3z"
									/>
							</g>
							<g>
								<path class="st3" d="M530,369.6c-5.8,6.1-17.1,14.8-34.6,16l-3,0.2c0,0,0,0,0,0l-0.9,2.8c-0.1,0.2-7.4,23.2-23.3,43.9
									c-4.7,6-9.6,11.4-14.8,15.8l-1.2,1c-2.3,1.9-4.6,3.6-7.1,5.2c-5.3,3.5-10.8,6.2-16.5,8c3-10.4,4.8-21.1,5.3-31.9
									c0.1-2.6,0.2-5,0.2-7.3c0-7-0.5-13.9-1.5-20.8c0,0,0,0,0,0c-0.2-1.3-0.4-2.5-0.6-3.8c4.6,0.1,11.5,0,19.1-1.3
									c16.1-2.7,28-9.1,35.4-19l0.6-0.8l0.2-0.9c0.1-0.6,2.4-11,1.6-24.9C496.9,358.5,510.5,366.6,530,369.6z"/>
							</g>
							<g>
								<path d="M480,364.2c-0.3,6.2-1,9.1-1.1,9.7C479.1,372.3,479.7,368.9,480,364.2z"/>
							</g>
							<g>
								<path class="st2" d="M247.1,139.8l18.2-5.7v25.4c0,0-7,0.4-11.6,1.8L247.1,139.8z"/>
							</g>
							<g>
								<path class="st7" d="M229.3,338.3c-25.9-12-43.6-36.3-43.6-64.4v-0.3c0.1-17.1,11.7-32.1,28.1-36.8c1.3-0.4,2.6-0.7,3.9-1h0
									c0,0-18.4,16.8-13.8,45.5C208.5,310.1,218.8,325.3,229.3,338.3z"/>
							</g>
							<g>
								<path class="st4" d="M301.3,338.3c25.9-12,43.6-36.3,43.6-64.4v-0.3c-0.1-17.1-11.7-32.1-28.1-36.8c-1.3-0.4-2.6-0.7-3.9-1
									h0c0,0,18.4,16.8,13.8,45.5C322.1,310.1,311.8,325.3,301.3,338.3z"/>
							</g>
							<g>
								<path class="st7" d="M157,517.2c-4.3,0.1-8.7-0.7-13-2.5c-10-4.1-17-12.5-19.7-22.2l0.1-0.1c-0.1-0.2-0.2-0.3-0.3-0.5
									c-1.8-6.7-1.4-14.1,1.4-21c5.3-13,17.9-20.9,31.2-20.9c0.1,0,0.2,0,0.3,0c-13.8,4.9-23.7,18.1-23.7,33.6
									C133.2,499.1,143.2,512.3,157,517.2z"/>
							</g>
							<g>
								<path class="st8" d="M129.5,567.4c-30.8-20.9-48.6-48.5-48.6-78c0-16.5,5.7-32.8,16.7-47.8c2.4,18.9,8.6,36.9,18.4,53.8
									c1.7,5.8,4.6,11.2,8.6,15.9v0C124.7,511.3,108.7,539.2,129.5,567.4z"/>
							</g>
							<g>
								<path class="st8" d="M216.3,341.3c0,0-52-7.4-69.4,34.6c-3.1,7.4-5.3,14.5-6.9,21.2c-4.1-17.6-7.5-34.7-10.1-51.2
									c9.8-14.1,22.1-26.5,36.6-36.8c0.4,0.1,0.7,0.2,1.1,0.2c1,0.2,2,0.2,3,0.2c4.7,0,9.4-1.8,12.8-5.4
									C190,319.4,201.6,332.3,216.3,341.3z"/>
							</g>
							<g>
								<path class="st9" d="M245.5,482.6c-9.8-0.7-19.4-2-28.9-3.8c0,0,0,0,0,0v0c-6.3-1.2-12.5-2.6-18.6-4.3
									c-0.6-2.5-1.3-5-2.4-7.4c-1.5-3.6-3.5-6.9-5.8-9.9c-0.8-4.6-3.4-24.7,3.9-49.1C193.7,408.2,200.6,465.7,245.5,482.6z"/>
							</g>
							<g>
								<path class="st9" d="M318.6,385.9c8.1,7.1,17.7,14.6,26.5,19.1c-38.9-12.5-67.9-28.2-87.9-41.6c2.5,0.3,5.2,0.5,8.1,0.5
									c23.4,0,31.3-11.4,33.2-14.9c22.1-8.2,39.7-24.4,48.8-44.6c-0.3,1.2-8.6,30.8-29.3,50.1C308.8,363,309.2,377.6,318.6,385.9z
									"/>
							</g>
							<g>
								<path class="st10" d="M345.2,405C345.2,405,345.2,405,345.2,405C345.2,405,345.2,405,345.2,405L345.2,405z"/>
							</g>
							<g>
								<path class="st9" d="M319.4,550.3c-28.5-7.6-67-24.3-93.9-61c13,1.9,26.3,2.9,39.8,2.9c2.7,0,5.4,0,8.1-0.1
									C274,501.5,279.1,539.3,319.4,550.3z"/>
							</g>
							<g>
								<path class="st4" d="M360.3,505c-2.4,2.4-5.5,5.1-9.2,7.5c-3.7-3-6.7-6.7-8.8-10.9C349.1,504.7,355.1,505.5,360.3,505z"/>
							</g>
							<g>
								<path class="st4" d="M385.6,486l18.6,10.6c-0.3,0.8-0.6,1.6-0.9,2.5c-3.2,7.9-9.2,14-16.3,17.5c3.5-6.3,4.3-10.7,4.4-10.9
									l-8.6-1.6c0,0.1-1.5,7.1-8.6,15.9c-4.8,0.3-9.8-0.5-14.6-2.4c-0.1,0-0.2-0.1-0.2-0.1c11-8.2,16.1-17.4,16.3-17.8l-0.8-0.4
									C382.2,493.5,385.6,486,385.6,486z"/>
							</g>
							<g>
								<path class="st9" d="M425.4,423.4c0,2.2-0.1,4.4-0.2,6.8c-0.6,12.6-3.1,25.1-7.3,37.1c-2.6,7.4-5.8,14.6-9.6,21.4
									l-19.8-11.2c41.9-94.6-12.3-158.2-13.2-159.7c20.2,17.4,35.4,39.6,43.4,63.7c1.5,4.5,2.7,9.1,3.7,13.5
									C424.3,404.4,425.4,413.9,425.4,423.4z"/>
							</g>
							<g>
								<path class="st11" d="M338.9,415.5c5.4,23.7,1.9,41.3,1.9,41.4l-0.3,1.4c-2.1,2.4-3.9,5-5.4,7.7c-6.7,1.1-12.7,0.7-18.1-0.5
									C341.5,462.9,338.9,415.5,338.9,415.5z"/>
							</g>
							<g>
								<path class="st11" d="M492.4,385.9l-0.9,2.8c-0.1,0.2-7.4,23.2-23.3,43.9c-4.7,6-9.6,11.4-14.8,15.8l-1.2,1
									c-2.3,1.9-4.6,3.6-7.1,5.2c-5.3,3.5-10.8,6.2-16.5,8c3-10.4,4.8-21.1,5.3-31.9c0.1-2.6,0.2-5,0.2-7.3c0-7-0.5-13.9-1.5-20.8
									c1.3,4.3,5.2,12,17,21.3C467.9,438.2,491.8,387.3,492.4,385.9z"/>
							</g>
							<g>
								<circle cx="317.5" cy="444.2" r="5.8"/>
							</g>
							<g>
								<path class="st12" d="M441.8,416.5c-0.2,0-0.5-0.1-0.7-0.2c-0.5-0.4-0.6-1.1-0.2-1.5c1.5-1.9,2.1-3.8,1.8-5.5
									c-0.6-2.8-3.4-4.4-3.4-4.4c-0.5-0.3-0.7-1-0.4-1.5c0.3-0.5,1-0.7,1.5-0.4c0.2,0.1,3.7,2.1,4.5,5.9c0.5,2.4-0.3,4.8-2.2,7.3
									C442.5,416.4,442.2,416.5,441.8,416.5z"/>
							</g>
							<g>
								<path class="st12" d="M443.9,433.9c-0.2,0-0.5-0.1-0.7-0.2c-0.5-0.4-0.6-1.1-0.2-1.5c1.5-1.9,2.1-3.8,1.8-5.5
									c-0.5-2.8-3.4-4.4-3.4-4.5c-0.5-0.3-0.7-1-0.4-1.5c0.3-0.5,1-0.7,1.5-0.4c0.2,0.1,3.7,2.1,4.5,5.9c0.5,2.4-0.3,4.8-2.2,7.3
									C444.5,433.7,444.2,433.9,443.9,433.9z"/>
							</g>
							<g>
								<path class="st12" d="M454.8,418c-0.2,0-0.5-0.1-0.7-0.2c-0.5-0.4-0.6-1.1-0.2-1.5c1.5-1.9,2.1-3.8,1.8-5.5
									c-0.6-2.8-3.4-4.4-3.4-4.4c-0.5-0.3-0.7-1-0.4-1.5c0.3-0.5,1-0.7,1.5-0.4c0.2,0.1,3.7,2.1,4.5,5.9c0.5,2.4-0.3,4.8-2.2,7.3
									C455.4,417.9,455.1,418,454.8,418z"/>
							</g>
							<g>
								<path class="st12" d="M457.8,437.6c-0.2,0-0.5-0.1-0.7-0.2c-0.5-0.4-0.6-1.1-0.2-1.5c1.5-1.9,2.1-3.8,1.8-5.5
									c-0.5-2.8-3.4-4.4-3.4-4.5c-0.5-0.3-0.7-1-0.4-1.5c0.3-0.5,1-0.7,1.5-0.4c0.2,0.1,3.7,2.1,4.5,5.9c0.5,2.4-0.3,4.8-2.2,7.3
									C458.5,437.4,458.2,437.6,457.8,437.6z"/>
							</g>
							<g>
								<path class="st12" d="M466.4,422.3c-0.2,0-0.5-0.1-0.7-0.2c-0.5-0.4-0.6-1.1-0.2-1.5c1.5-1.9,2.1-3.8,1.8-5.5
									c-0.5-2.8-3.4-4.4-3.4-4.5c-0.5-0.3-0.7-1-0.4-1.5c0.3-0.5,1-0.7,1.5-0.4c0.2,0.1,3.7,2.1,4.5,5.9c0.5,2.4-0.3,4.8-2.2,7.3
									C467,422.2,466.7,422.3,466.4,422.3z"/>
							</g>
							<g>
								<path class="st12" d="M445.8,451.3c-0.2,0-0.5-0.1-0.7-0.2c-0.5-0.4-0.6-1.1-0.2-1.5c1.5-1.9,2.1-3.8,1.8-5.5
									c-0.5-2.8-3.4-4.4-3.4-4.5c-0.5-0.3-0.7-1-0.4-1.5c0.3-0.5,1-0.7,1.5-0.4c0.2,0.1,3.7,2.1,4.5,5.9c0.5,2.4-0.3,4.8-2.2,7.3
									C446.5,451.1,446.2,451.3,445.8,451.3z"/>
							</g>
							<g>
								<path class="st2" d="M194.3,235.8c0,0,6.8-53.3,52.8-67.3c0,0-27.4,15.6-33.1,58C214,226.6,205.3,228.9,194.3,235.8z"/>
							</g>
							<g>
								<path class="st4" d="M340.7,594.5c-3.2,0.9-6.4,1.7-9.7,2.5l-6.4-37.9L340.7,594.5z"/>
							</g>
						</g>
					</g>
					<path class="st9" d="M236.9,603.3c-10.4-1-20.6-2.6-30.5-4.7l-28.4-78.5c7.8-4.5,14.3-11.6,17.9-20.6c2-5.1,3.1-10.4,3.1-15.7
						c0,0,4.8,11,1.3,23.7c-4,14.2-2.3,29.5,5.2,42.2L236.9,603.3z"/>
				</g>
			</g>
			<circle class="st13" cx="306.9" cy="300.7" r="9.4"/>
			<circle class="st13" cx="222.4" cy="300.7" r="9.4"/>
			<path d="M314.9,276.3c0,0-8.3-10.1-27.7-10.1c-1.4,0-2.6,1.1-2.6,2.5l0,0c0,1.4,1.1,2.5,2.5,2.5
				C292.7,271.4,306.6,272.1,314.9,276.3z"/>
			<path d="M296.5,257.2c4.2,1.1,12.4,4.1,19.1,11.2c0,0,0.7-12.2-16.7-18.6c-2.6-1-5.4,1-5.3,3.8v0
				C293.7,255.3,294.9,256.7,296.5,257.2z"/>
			<path d="M214.4,276.3c0,0,8.3-10.1,27.7-10.1c1.4,0,2.6,1.1,2.6,2.5l0,0c0,1.4-1.1,2.5-2.5,2.5
				C236.6,271.4,222.8,272.1,214.4,276.3z"/>
			<path d="M232.8,257.2c-4.2,1.1-12.4,4.1-19.1,11.2c0,0-0.7-12.2,16.7-18.6c2.6-1,5.4,1,5.3,3.8v0
				C235.6,255.3,234.5,256.7,232.8,257.2z"/>
			<g>
				<path d="M264.7,342c-4.6,0-8.9-1-13-2.9c-0.6-0.3-0.9-1.1-0.6-1.7c0.3-0.6,1.1-0.9,1.7-0.6c3.7,1.7,7.7,2.6,11.9,2.6
					c4.2,0,8.1-0.9,11.8-2.6c0.6-0.3,1.4,0,1.7,0.6c0.3,0.6,0,1.4-0.6,1.7C273.6,341.1,269.2,342,264.7,342z"/>
			</g>
		</g>
	</g>
</g>
<g id="Logo_x5F_1">
	<g>
		<path d="M1274.2-109.7c-0.9-6.3-2.4-12.3-3.7-17.7l-0.4-1.7c-0.9-3.5-0.9-7,0-10.5c1.6-6.6-0.3-13.5-5.3-18.2
			c-4.9-4.8-11.8-6.5-18.4-4.6c-2.5,0.7-4.5,1.6-6.3,2.6c-0.6-1.7-1.3-3.3-2-5c-2.4-13.3-17.9-83-75.4-98l10.2-32.5l-32.6-12.2
			l-0.4-0.2l0,0l0,0l-0.4,0.2l-32.6,12.2l10.2,32.5c-57.5,15-72.9,84.7-75.4,98c-0.7,1.6-1.4,3.3-2,5c-1.7-1-3.8-1.9-6.3-2.6
			c-6.6-1.9-13.5-0.1-18.4,4.6c-4.9,4.8-6.9,11.6-5.3,18.2c0.9,3.5,0.9,7,0,10.5l-0.4,1.7c-1.3,5.4-2.8,11.4-3.7,17.7
			c-1.1,7.6,1.5,13.6,5.8,17.7c0,0,3.8,3.3,10.3,5.5c0.5,0.1,1,0.2,1.6,0.3c1.2,0.2,2.4,0.3,3.6,0.3c5.5,0,11.1-2,15.1-6.2
			c0,0,0,0,0,0c10.8,24.2,32,43.6,58.4,53.4c2.2,4.2,11.7,17.8,39.6,17.8c0,0,0.1,0,0.1,0c0,0,0,0,0,0c0,0,0,0,0,0c0,0,0.1,0,0.1,0
			c27.9,0,37.3-13.6,39.6-17.8c26.5-9.9,47.6-29.2,58.4-53.4c0,0,0,0,0,0c4,4.2,9.5,6.2,15.1,6.2c1.2,0,2.4-0.1,3.6-0.3
			c0.5-0.1,1-0.2,1.6-0.3c6.5-2.2,10.3-5.5,10.3-5.5C1272.7-96.1,1275.3-102.1,1274.2-109.7z"/>
		<g>
			<g>
				<g>
					<g>
						<g>
							<g>
								<path class="st4" d="M1243.4-149.5c1.2-0.9,3.1-2.1,6-2.8c3-0.8,6-0.1,8.3,2.1c2.2,2.2,3.1,5.2,2.4,8.2
									c-1.3,5.1-1.3,10.4,0,15.5l0.4,1.7c1.3,5.4,2.7,10.9,3.5,16.6c1,7.4-4.1,11-8.8,11.7s-10.7-1-12-8.4c0-0.3-0.1-0.6-0.1-0.8
									c1.9-7.3,3-15,3-22.9C1245.9-135.8,1245-142.8,1243.4-149.5z"/>
							</g>
							<g>
								<path class="st6" d="M1158.5-73.6h-38.8c8.8-5.1,19.1-4.8,19.2-4.8h0.4C1139.4-78.4,1149.7-78.7,1158.5-73.6z"/>
								<path class="st6" d="M1163.5-44.7c-7,1.6-14.3,2.5-21.8,2.7l-5.2,0c-7.5-0.2-14.9-1.3-21.9-3c-4.7-1.2-7.7-5.7-6.9-10.5
									c0.8-4.8,2.5-8.9,5.2-12.3c6.4,7.2,15.8,11.8,26.2,11.8c10.4,0,19.8-4.6,26.2-11.8c2.8,3.4,4.5,7.7,5.3,12.7
									C1171.3-50.3,1168.3-45.8,1163.5-44.7z"/>
							</g>
							<g>
								<path class="st6" d="M1235.4-129v0.4c0,34.2-22,63.9-53.9,77.9c-0.3-10.4-3.4-19-9.5-25.6c-5.8-6.2-13.1-9.3-19.4-11
									c11.1-4.8,2.6-15.9,2.6-15.9c3.1,12.5-12.9,14-15.7,14.2c-0.3,0-0.6,0-0.8,0c-2.8-0.2-18.8-1.7-15.7-14.2
									c0,0-8.5,11.1,2.6,15.9c-6.3,1.6-13.7,4.8-19.4,11c-6,6.4-9.1,14.7-9.5,24.8c-31-14.3-52.3-43.5-52.3-77.2v-0.4
									c0.1-20.5,14-38.5,33.7-44.1c1.6-0.4,3.1-0.9,4.7-1.2h0c31.2-7.9,57.1-6.2,57.1-6.2s28.5-1.9,61.8,7.5
									C1221.4-167.5,1235.3-149.5,1235.4-129z"/>
							</g>
							<g>
								<path class="st7" d="M1015.6-108.2c0.8-5.7,2.2-11.3,3.5-16.6l0.4-1.7c1.3-5.2,1.3-10.4,0-15.5c-0.7-3,0.2-6,2.4-8.2
									c2.2-2.1,5.3-2.9,8.3-2.1c3,0.9,5.1,2.1,6.2,3.1c-1.6,6.7-2.5,13.6-2.5,20.7c0,7.6,1,15,2.8,22.1h0
									c-0.1,0.5-0.2,1.1-0.3,1.6c-1.3,7.4-7.3,9.1-12,8.4C1019.7-97.3,1014.6-100.8,1015.6-108.2z"/>
							</g>
							<g>
								<path class="st2" d="M1118.2-289.3l21.8-6.8v30.4c0,0-8.4,0.4-13.9,2.2L1118.2-289.3z"/>
							</g>
							<g>
								<path class="st7" d="M1096.7-51.4c-31-14.3-52.3-43.5-52.3-77.2v-0.4c0.1-20.5,14-38.5,33.7-44c1.6-0.4,3.1-0.9,4.7-1.2h0
									c0,0-22.1,20.1-16.5,54.6C1071.9-85.3,1084.2-67.1,1096.7-51.4z"/>
							</g>
							<g>
								<path class="st4" d="M1183.1-51.4c31-14.3,52.3-43.5,52.3-77.2v-0.4c-0.1-20.5-14-38.5-33.7-44c-1.6-0.4-3.1-0.9-4.7-1.2h0
									c0,0,22.1,20.1,16.5,54.6C1207.9-85.3,1195.6-67.1,1183.1-51.4z"/>
							</g>
							<g>
								<path class="st2" d="M1054.9-174.3c0,0,8.2-63.9,63.3-80.6c0,0-32.8,18.7-39.7,69.5C1078.5-185.3,1068-182.5,1054.9-174.3z"
									/>
							</g>
						</g>
					</g>
				</g>
			</g>
			<circle class="st13" cx="1189.8" cy="-96.5" r="11.3"/>
			<circle class="st13" cx="1088.5" cy="-96.5" r="11.3"/>
			<path d="M1199.4-125.7c0,0-10-12.1-33.2-12.1c-1.7,0-3.1,1.4-3.1,3v0c0,1.7,1.3,3,3,3C1172.8-131.6,1189.4-130.7,1199.4-125.7z"
				/>
			<path d="M1177.3-148.7c5,1.3,14.9,4.9,22.9,13.5c0,0,0.8-14.6-20-22.3c-3.2-1.2-6.5,1.2-6.3,4.6v0
				C1173.9-150.9,1175.3-149.2,1177.3-148.7z"/>
			<path d="M1078.9-125.7c0,0,10-12.1,33.2-12.1c1.7,0,3.1,1.4,3.1,3v0c0,1.7-1.3,3-3,3C1105.5-131.6,1088.9-130.7,1078.9-125.7z"/>
			<path d="M1101-148.7c-5,1.3-14.9,4.9-22.9,13.5c0,0-0.8-14.6,20-22.3c3.2-1.2,6.5,1.2,6.3,4.6v0
				C1104.4-150.9,1103-149.2,1101-148.7z"/>
			<g>
				<path d="M1139.1-47c-5.5,0-10.7-1.2-15.5-3.5c-0.8-0.4-1.1-1.3-0.7-2.1s1.3-1.1,2.1-0.7c4.4,2.1,9.2,3.2,14.2,3.2
					c5,0,9.8-1.1,14.2-3.2c0.8-0.4,1.7,0,2.1,0.7s0,1.7-0.7,2.1C1149.8-48.1,1144.6-47,1139.1-47z"/>
			</g>
		</g>
	</g>
</g>
</svg>
